<?xml version="1.0" encoding="UTF-8"?>
<svg id="Layer_1" data-name="Layer 1" xmlns="http://www.w3.org/2000/svg" xmlns:xlink="http://www.w3.org/1999/xlink" viewBox="0 0 338 167">
  <defs>
    <filter id="outer-glow-1" x="0" y="0" width="338" height="167" filterUnits="userSpaceOnUse">
      <feOffset dx="0" dy="0"/>
      <feGaussianBlur result="blur" stdDeviation="16"/>
      <feFlood flood-color="#e2bf60" flood-opacity=".97"/>
      <feComposite in2="blur" operator="in"/>
      <feComposite in="SourceGraphic"/>
    </filter>
  </defs>
  <rect x="48.44" y="48.86" width="241.53" height="70.12" rx="6.59" ry="6.59" fill="#e2bf60" filter="url(#outer-glow-1)"/>
  <g>
    <path d="M80.09,95.41v-1.07c2.54,0,3.82-1.09,3.82-3.28v-16.44c0-.88-.58-1.32-1.75-1.32-1.57,0-2.84.51-3.82,1.52s-1.7,2.54-2.18,4.58l-1.11-.28.96-7.6c.55.07,1.06.13,1.55.18.49.05.96.07,1.41.07h13.73c.5,0,1.01-.02,1.53-.07.52-.05,1.06-.11,1.61-.18v7.46l-.96.14c-.28-3.8-2.18-5.71-5.68-5.71-1.18,0-1.78.4-1.78,1.21v16.44c0,2.19,1.28,3.28,3.85,3.28v1.07h-11.2Z" fill="#870e8e"/>
    <path d="M108.2,95.55c-.07-.17-.11-.49-.11-.96v-1.36c-.24.4-.5.77-.78,1.09-.28.32-.62.59-1.02.8-.39.21-.85.38-1.37.5-.52.12-1.14.18-1.85.18-.9,0-1.68-.08-2.32-.25-.64-.17-1.16-.46-1.57-.87-.4-.42-.7-.97-.87-1.68-.18-.7-.27-1.57-.27-2.62v-7.2c0-.81-.77-1.21-2.32-1.21l-.14-.93,5.46-.43v9.1c0,.57.02,1.12.05,1.64.04.52.14.98.32,1.37s.47.71.87.94c.4.24.98.36,1.74.36,1.92,0,3.23-1.21,3.94-3.64v-7.2c0-.81-.86-1.21-2.57-1.21l-.14-.93,5.71-.43v11.95c0,.81.81,1.26,2.43,1.36l.29.96-5.46.68Z" fill="#870e8e"/>
    <path d="M115.37,95.41v-1.07c1.62,0,2.43-.55,2.43-1.64v-18.08c0-1.17-.92-1.75-2.75-1.75v-.96l5.74-1.07v22.01c0,1,.9,1.5,2.71,1.5v1.07h-8.13Z" fill="#870e8e"/>
    <path d="M138.94,91.88c-.62,1.33-1.45,2.37-2.5,3.1-1.05.74-2.28,1.11-3.71,1.11-1.19,0-2.24-.2-3.14-.61-.9-.4-1.66-.95-2.26-1.64-.61-.69-1.06-1.51-1.37-2.46-.31-.95-.46-1.96-.46-3.03s.17-2.09.5-3.07c.33-.97.8-1.84,1.41-2.6.61-.76,1.34-1.37,2.19-1.82.86-.45,1.81-.68,2.85-.68.64,0,1.31.08,2.02.23.7.16,1.36.46,1.98.91.62.45,1.15,1.1,1.61,1.94.45.84.75,1.96.89,3.33,0,.29-.04.55-.11.79h-9.49c-.45,0-.68.18-.68.54,0,.86.12,1.66.36,2.42.24.76.57,1.43,1,2,.43.57.95,1.02,1.57,1.34.62.32,1.31.48,2.07.48,1,0,1.86-.28,2.59-.85.73-.57,1.36-1.24,1.91-2l.78.57ZM134.09,86.31c.97,0,1.46-.5,1.46-1.5-.07-.9-.37-1.69-.91-2.37-.53-.68-1.31-1.02-2.34-1.02-.55,0-1.05.13-1.5.37-.45.25-.84.58-1.16,1s-.57.89-.73,1.43c-.17.53-.25,1.09-.25,1.66,0,.28.26.43.78.43h4.64Z" fill="#870e8e"/>
    <path d="M161.62,95.41v-1.07c1.55,0,2.32-.5,2.32-1.5v-5.85c0-3.26-1.16-4.89-3.49-4.89s-3.57,1.45-3.57,4.35v6.38c0,1,.86,1.5,2.57,1.5v1.07h-7.56v-1.07c1.33,0,2-.55,2-1.64v-9.1c0-.83-.64-1.25-1.93-1.25h-.5v-.93l5.14-1.25c.09.09.14.33.14.71v2.14c.19-.36.43-.71.73-1.05.3-.34.67-.65,1.11-.91.44-.26.96-.47,1.55-.64.59-.17,1.27-.25,2.03-.25.43,0,.91.09,1.46.27s1.07.46,1.57.86c.5.39.91.9,1.25,1.52.33.62.5,1.37.5,2.25v7.88c0,.93.77,1.39,2.32,1.39v1.07h-7.63Z" fill="#870e8e"/>
    <path d="M186.16,93.91c-.36,1.26-1.31,1.89-2.85,1.89-1.36,0-2.21-.77-2.57-2.32-1.71,1.55-3.53,2.32-5.46,2.32-1.26,0-2.19-.27-2.78-.8-.6-.53-.89-1.38-.89-2.55,0-2.93,2.95-4.92,8.85-5.99v-1.39c0-2.33-.91-3.5-2.73-3.5-.79,0-1.47.13-2.05.39s-.86.76-.86,1.5c.14.09.25.24.32.45.07.2.11.41.11.62,0,.9-.55,1.36-1.64,1.36-.4,0-.75-.13-1.03-.39-.29-.26-.43-.66-.43-1.21s.17-1.07.5-1.57.77-.93,1.31-1.3c.54-.37,1.16-.66,1.86-.89s1.43-.34,2.17-.34c1.98,0,3.39.37,4.22,1.11.84.74,1.25,1.96,1.25,3.67v7.74c0,.88.4,1.32,1.21,1.32.38,0,.75-.13,1.11-.39l.39.28ZM180.6,87.67c-.74.07-1.47.2-2.19.37s-1.36.43-1.92.75-1.02.73-1.36,1.23-.52,1.12-.52,1.85c0,1.55.75,2.32,2.26,2.32.67,0,1.23-.1,1.67-.3.44-.2.8-.47,1.08-.8.28-.33.49-.7.65-1.11.16-.4.27-.81.34-1.21v-3.1Z" fill="#870e8e"/>
    <path d="M199.36,95.55c-.07-.17-.11-.49-.11-.96v-1.36c-.24.4-.5.77-.79,1.09-.28.32-.62.59-1.02.8-.39.21-.85.38-1.37.5-.52.12-1.14.18-1.85.18-.9,0-1.68-.08-2.32-.25-.64-.17-1.17-.46-1.57-.87-.4-.42-.7-.97-.87-1.68-.18-.7-.27-1.57-.27-2.62v-7.2c0-.81-.77-1.21-2.32-1.21l-.14-.93,5.46-.43v9.1c0,.57.02,1.12.05,1.64.03.52.14.98.32,1.37s.47.71.87.94c.4.24.98.36,1.74.36,1.92,0,3.23-1.21,3.94-3.64v-7.2c0-.81-.86-1.21-2.57-1.21l-.14-.93,5.71-.43v11.95c0,.81.81,1.26,2.42,1.36l.29.96-5.46.68Z" fill="#870e8e"/>
    <path d="M216.09,91.77c-.14.62-.32,1.18-.54,1.69-.21.51-.5.95-.85,1.32s-.8.65-1.34.86c-.54.2-1.17.3-1.91.3-1.16,0-2.09-.28-2.76-.84s-1.02-1.46-1.02-2.69v-10.17h-2.32l.14-1.07c1.09-.21,1.97-.84,2.64-1.87s1.14-2.23,1.43-3.59l1.11-.14v5.28h2.82c.33,0,.64-.03.91-.08.27-.05.52-.11.73-.17v1.64h-4.46v9.38c0,.28.01.56.04.84.02.27.09.53.2.77.11.24.28.43.52.57.24.14.57.21,1,.21.69,0,1.31-.24,1.85-.71.55-.48.88-1.08,1-1.82l.82.29Z" fill="#870e8e"/>
    <path d="M217.09,95.41v-1.07c1.64,0,2.46-.72,2.46-2.18v-7.1c0-1.88-.73-2.82-2.18-2.82v-.96l5.17-1.11v12.13c0,1.36.9,2.03,2.71,2.03v1.07h-8.17ZM220.8,76.26c-1.26,0-1.89-.73-1.89-2.18,0-1.36.68-2.03,2.03-2.03,1.28,0,1.93.68,1.93,2.03,0,1.45-.69,2.18-2.07,2.18Z" fill="#870e8e"/>
    <path d="M246.33,95.41v-1.07c1.52,0,2.28-.59,2.28-1.78v-6.49c0-2.64-.99-3.96-2.96-3.96-1.71,0-2.89.99-3.53,2.96v6.95c0,1.55.77,2.32,2.32,2.32v1.07h-7.49v-1.07c1.45,0,2.18-.82,2.18-2.46v-4.89c0-3.26-.99-4.89-2.96-4.89-2.38,0-3.57,1.45-3.57,4.35v5.96c0,1.28.77,1.93,2.32,1.93v1.07h-7.31v-1.07c1.33,0,2-.59,2-1.78v-9.1c0-.74-.81-1.11-2.42-1.11v-.93l5.14-1.25c.09.09.14.33.14.71v2.14c.38-.71,1-1.37,1.85-1.96.86-.59,1.87-.89,3.03-.89.43,0,.89.08,1.37.25.49.17.94.39,1.36.66.42.27.77.59,1.07.95s.49.74.59,1.14c.45-.9,1.15-1.63,2.09-2.18s1.92-.82,2.94-.82c1.43,0,2.57.45,3.42,1.36s1.28,2.18,1.28,3.82v7.2c0,1.19.77,1.78,2.32,1.78v1.07h-7.46Z" fill="#870e8e"/>
    <path d="M270.69,93.91c-.36,1.26-1.31,1.89-2.85,1.89-1.36,0-2.21-.77-2.57-2.32-1.71,1.55-3.53,2.32-5.46,2.32-1.26,0-2.19-.27-2.78-.8-.6-.53-.89-1.38-.89-2.55,0-2.93,2.95-4.92,8.85-5.99v-1.39c0-2.33-.91-3.5-2.73-3.5-.79,0-1.47.13-2.05.39-.58.26-.86.76-.86,1.5.14.09.25.24.32.45.07.2.11.41.11.62,0,.9-.55,1.36-1.64,1.36-.4,0-.75-.13-1.03-.39-.28-.26-.43-.66-.43-1.21s.17-1.07.5-1.57.77-.93,1.31-1.3c.54-.37,1.16-.66,1.86-.89s1.42-.34,2.17-.34c1.98,0,3.39.37,4.22,1.11.83.74,1.25,1.96,1.25,3.67v7.74c0,.88.4,1.32,1.21,1.32.38,0,.75-.13,1.11-.39l.39.28ZM265.13,87.67c-.74.07-1.47.2-2.19.37s-1.36.43-1.92.75c-.56.32-1.02.73-1.36,1.23s-.52,1.12-.52,1.85c0,1.55.75,2.32,2.26,2.32.67,0,1.23-.1,1.67-.3.44-.2.8-.47,1.08-.8.27-.33.49-.7.65-1.11.16-.4.27-.81.34-1.21v-3.1Z" fill="#870e8e"/>
  </g>
</svg>