<?xml version="1.0" encoding="UTF-8" standalone="no"?>
<svg
   id="Layer_1"
   data-name="Layer 1"
   viewBox="0 0 239.40323 179.12702"
   version="1.1"
   sodipodi:docname="siil-logo.svg"
   width="239.40323"
   height="179.12703"
   inkscape:version="1.4.2 (f4327f4, 2025-05-13)"
   xmlns:inkscape="http://www.inkscape.org/namespaces/inkscape"
   xmlns:sodipodi="http://sodipodi.sourceforge.net/DTD/sodipodi-0.dtd"
   xmlns:xlink="http://www.w3.org/1999/xlink"
   xmlns="http://www.w3.org/2000/svg"
   xmlns:svg="http://www.w3.org/2000/svg">
  <sodipodi:namedview
     id="namedview296"
     pagecolor="#ffffff"
     bordercolor="#000000"
     borderopacity="0.25"
     inkscape:showpageshadow="2"
     inkscape:pageopacity="0.0"
     inkscape:pagecheckerboard="0"
     inkscape:deskcolor="#d1d1d1"
     inkscape:zoom="2.13"
     inkscape:cx="119.48357"
     inkscape:cy="73.474178"
     inkscape:window-width="1366"
     inkscape:window-height="705"
     inkscape:window-x="-8"
     inkscape:window-y="-8"
     inkscape:window-maximized="1"
     inkscape:current-layer="Layer_1" />
  <defs
     id="defs121">
    <filter
       id="outer-glow-1"
       x="-123.8"
       y="-123.45"
       width="487"
       height="426"
       filterUnits="userSpaceOnUse">
      <feOffset
         dx="0"
         dy="0"
         id="feOffset1" />
      <feGaussianBlur
         result="blur"
         stdDeviation="41"
         id="feGaussianBlur1" />
      <feFlood
         flood-color="#e2d4b0"
         flood-opacity=".6"
         id="feFlood1" />
      <feComposite
         in2="blur"
         operator="in"
         id="feComposite1" />
      <feComposite
         in="SourceGraphic"
         id="feComposite2" />
    </filter>
    <linearGradient
       id="linear-gradient"
       x1="-432.95999"
       y1="-412.17999"
       x2="-432.39001"
       y2="-412.17999"
       gradientTransform="matrix(6.3465358,36.289214,36.289214,-6.3465358,17896.92,13220.53)"
       gradientUnits="userSpaceOnUse">
      <stop
         offset="0"
         stop-color="#fcdf00"
         id="stop2" />
      <stop
         offset=".93"
         stop-color="#fcdf00"
         id="stop3" />
      <stop
         offset=".97"
         stop-color="#663411"
         id="stop4" />
      <stop
         offset="1"
         stop-color="#663411"
         id="stop5" />
    </linearGradient>
    <linearGradient
       id="linear-gradient-2"
       x1="-426.44"
       y1="-409"
       x2="-425.89001"
       y2="-409"
       gradientTransform="matrix(9.3549895,28.672457,28.672457,-9.3549895,15919.51,8525.7)"
       gradientUnits="userSpaceOnUse">
      <stop
         offset="0"
         stop-color="#fcdf00"
         id="stop6" />
      <stop
         offset=".92"
         stop-color="#fcdf00"
         id="stop7" />
      <stop
         offset=".98"
         stop-color="#663411"
         id="stop8" />
      <stop
         offset="1"
         stop-color="#663411"
         id="stop9" />
    </linearGradient>
    <linearGradient
       id="linear-gradient-3"
       x1="-426.72"
       y1="-417.92001"
       x2="-426.17001"
       y2="-417.92001"
       gradientTransform="matrix(17.914852,34.709389,34.709389,-17.914852,22342.87,7446.92)"
       gradientUnits="userSpaceOnUse">
      <stop
         offset="0"
         stop-color="#fff"
         stop-opacity=".85"
         id="stop10" />
      <stop
         offset=".05"
         stop-color="#fff"
         stop-opacity=".85"
         id="stop11" />
      <stop
         offset=".1"
         stop-color="#fff"
         stop-opacity=".5"
         id="stop12" />
      <stop
         offset=".2"
         stop-color="#fcc100"
         stop-opacity=".3"
         id="stop13" />
      <stop
         offset=".48"
         stop-color="#fccf00"
         stop-opacity=".2"
         id="stop14" />
      <stop
         offset=".8"
         stop-color="#fcc100"
         stop-opacity=".5"
         id="stop15" />
      <stop
         offset=".89"
         stop-color="#fff"
         stop-opacity=".5"
         id="stop16" />
      <stop
         offset=".95"
         stop-color="#fff"
         stop-opacity=".85"
         id="stop17" />
      <stop
         offset="1"
         stop-color="#fff"
         stop-opacity=".85"
         id="stop18" />
    </linearGradient>
    <linearGradient
       id="linear-gradient-4"
       x1="-427.17999"
       y1="-418.20999"
       x2="-426.63"
       y2="-418.20999"
       gradientTransform="matrix(17.950547,35.566887,35.566887,-17.950547,22729.36,7806.57)"
       gradientUnits="userSpaceOnUse">
      <stop
         offset="0"
         stop-color="#341000"
         id="stop19" />
      <stop
         offset=".09"
         stop-color="#341000"
         id="stop20" />
      <stop
         offset=".15"
         stop-color="#341000"
         stop-opacity=".5"
         id="stop21" />
      <stop
         offset=".32"
         stop-color="#341000"
         stop-opacity="0"
         id="stop22" />
      <stop
         offset=".58"
         stop-color="#341000"
         stop-opacity=".3"
         id="stop23" />
      <stop
         offset=".91"
         stop-color="#341000"
         stop-opacity="0"
         id="stop24" />
      <stop
         offset=".97"
         stop-color="#341000"
         id="stop25" />
      <stop
         offset="1"
         stop-color="#341000"
         id="stop26" />
    </linearGradient>
    <linearGradient
       id="linear-gradient-5"
       x1="-435.70999"
       y1="-402.19"
       x2="-435.16"
       y2="-402.19"
       gradientTransform="matrix(0.26074163,28.728817,28.728817,-0.26074163,11873.6,12534.57)"
       gradientUnits="userSpaceOnUse">
      <stop
         offset="0"
         stop-color="#fcdf00"
         id="stop27" />
      <stop
         offset=".02"
         stop-color="#fcdf00"
         id="stop28" />
      <stop
         offset=".1"
         stop-color="#fcd500"
         stop-opacity=".52"
         id="stop29" />
      <stop
         offset=".16"
         stop-color="#fccf00"
         stop-opacity=".2"
         id="stop30" />
      <stop
         offset=".31"
         stop-color="#fccf00"
         stop-opacity=".8"
         id="stop31" />
      <stop
         offset=".51"
         stop-color="#fcc100"
         stop-opacity=".5"
         id="stop32" />
      <stop
         offset=".74"
         stop-color="#fcc100"
         stop-opacity=".5"
         id="stop33" />
      <stop
         offset=".92"
         stop-color="#fccf00"
         stop-opacity=".5"
         id="stop34" />
      <stop
         offset=".99"
         stop-color="#fcde00"
         stop-opacity=".98"
         id="stop35" />
      <stop
         offset=".99"
         stop-color="#fcdf00"
         id="stop36" />
      <stop
         offset="1"
         stop-color="#fcdf00"
         id="stop37" />
    </linearGradient>
    <linearGradient
       id="linear-gradient-6"
       x1="-436.79001"
       y1="-407.29999"
       x2="-436.23999"
       y2="-407.29999"
       gradientTransform="matrix(0.30375991,33.468622,33.468622,-0.30375991,13970.64,14613.97)"
       gradientUnits="userSpaceOnUse">
      <stop
         offset="0"
         stop-color="#fcdf00"
         id="stop38" />
      <stop
         offset=".01"
         stop-color="#fcdf00"
         id="stop39" />
      <stop
         offset=".08"
         stop-color="#341000"
         stop-opacity="0"
         id="stop40" />
      <stop
         offset=".19"
         stop-color="#341000"
         id="stop41" />
      <stop
         offset=".52"
         stop-color="#341000"
         stop-opacity=".2"
         id="stop42" />
      <stop
         offset=".73"
         stop-color="#341000"
         stop-opacity=".5"
         id="stop43" />
      <stop
         offset=".89"
         stop-color="#341000"
         stop-opacity=".2"
         id="stop44" />
      <stop
         offset="1"
         stop-color="#341000"
         stop-opacity="0"
         id="stop45" />
      <stop
         offset="1"
         stop-color="#341000"
         stop-opacity="0"
         id="stop46" />
    </linearGradient>
    <linearGradient
       id="linear-gradient-7"
       x1="-435.26999"
       y1="-401.01001"
       x2="-434.73001"
       y2="-401.01001"
       gradientTransform="matrix(0.24876185,27.408871,27.408871,-0.24876185,11290,11955.99)"
       gradientUnits="userSpaceOnUse">
      <stop
         offset="0"
         stop-color="#341000"
         id="stop47" />
      <stop
         offset="0"
         stop-color="#341000"
         id="stop48" />
      <stop
         offset=".12"
         stop-color="#341000"
         stop-opacity=".2"
         id="stop49" />
      <stop
         offset=".34"
         stop-color="#341000"
         stop-opacity=".5"
         id="stop50" />
      <stop
         offset=".84"
         stop-color="#341000"
         stop-opacity=".2"
         id="stop51" />
      <stop
         offset="1"
         stop-color="#341000"
         stop-opacity="0"
         id="stop52" />
      <stop
         offset="1"
         stop-color="#341000"
         stop-opacity="0"
         id="stop53" />
    </linearGradient>
    <linearGradient
       id="linear-gradient-8"
       x1="-435.35001"
       y1="-401.39001"
       x2="-434.81"
       y2="-401.39001"
       gradientTransform="matrix(0.25112151,27.66886,27.66886,-0.25112151,11406.93,12072.23)"
       xlink:href="#linear-gradient-5" />
    <linearGradient
       id="linear-gradient-9"
       x1="-637.77002"
       y1="-550.16998"
       x2="-637.28003"
       y2="-550.16998"
       gradientTransform="matrix(-3.4030813,-3.0352327,-3.0352327,3.4030813,-3632.43,77.43)"
       gradientUnits="userSpaceOnUse">
      <stop
         offset="0"
         stop-color="#fcdf00"
         id="stop54" />
      <stop
         offset=".01"
         stop-color="#fcdf00"
         id="stop55" />
      <stop
         offset=".22"
         stop-color="#341000"
         stop-opacity="0"
         id="stop56" />
      <stop
         offset=".5"
         stop-color="#341000"
         id="stop57" />
      <stop
         offset=".78"
         stop-color="#341000"
         stop-opacity=".5"
         id="stop58" />
      <stop
         offset=".99"
         stop-color="#341000"
         stop-opacity="0"
         id="stop59" />
      <stop
         offset="1"
         stop-color="#341000"
         stop-opacity="0"
         id="stop60" />
    </linearGradient>
    <linearGradient
       id="linear-gradient-10"
       x1="-703.98999"
       y1="-634.47998"
       x2="-703.54999"
       y2="-634.47998"
       gradientTransform="matrix(-2.11536,-2.401094,-2.401094,2.11536,-2814.94,-205.59)"
       gradientUnits="userSpaceOnUse">
      <stop
         offset="0"
         stop-color="#fcdf00"
         id="stop61" />
      <stop
         offset=".01"
         stop-color="#fcdf00"
         id="stop62" />
      <stop
         offset=".22"
         stop-color="#341000"
         stop-opacity="0"
         id="stop63" />
      <stop
         offset=".48"
         stop-color="#341000"
         id="stop64" />
      <stop
         offset=".81"
         stop-color="#341000"
         stop-opacity=".5"
         id="stop65" />
      <stop
         offset=".98"
         stop-color="#341000"
         stop-opacity="0"
         id="stop66" />
      <stop
         offset="1"
         stop-color="#341000"
         stop-opacity="0"
         id="stop67" />
    </linearGradient>
    <radialGradient
       id="radial-gradient"
       cx="168.03"
       cy="-262.95001"
       fx="168.03"
       fy="-262.95001"
       r="0.47999999"
       gradientTransform="matrix(1.4017323,-0.44277153,0.89457922,2.8320713,189.32,944.74)"
       gradientUnits="userSpaceOnUse">
      <stop
         offset="0"
         stop-color="#fff"
         stop-opacity=".85"
         id="stop68" />
      <stop
         offset=".68"
         stop-color="#fff"
         stop-opacity=".5"
         id="stop69" />
      <stop
         offset="1"
         stop-color="#fff"
         stop-opacity="0"
         id="stop70" />
    </radialGradient>
    <radialGradient
       id="radial-gradient-2"
       cx="-118.17"
       cy="-547.53003"
       fx="-118.17"
       fy="-547.53003"
       r="0.51999998"
       gradientTransform="matrix(3.1298711,-0.02840659,-0.01833269,-2.0199168,553.24,-965.16)"
       gradientUnits="userSpaceOnUse">
      <stop
         offset="0"
         stop-color="#fff"
         stop-opacity=".85"
         id="stop71" />
      <stop
         offset=".37"
         stop-color="#fff"
         stop-opacity=".85"
         id="stop72" />
      <stop
         offset="1"
         stop-color="#fff"
         stop-opacity="0"
         id="stop73" />
    </radialGradient>
    <radialGradient
       id="radial-gradient-3"
       cx="-148.42"
       cy="-545.46997"
       fx="-148.42"
       fy="-545.46997"
       r="0.5"
       gradientTransform="matrix(3.3898604,-0.03076624,-0.0185142,-2.039916,701.91,-975.19)"
       xlink:href="#radial-gradient-2" />
    <radialGradient
       id="radial-gradient-4"
       cx="-335.10001"
       cy="-132.34"
       fx="-335.10001"
       fy="-132.34"
       r="0.57999998"
       gradientTransform="matrix(3.2059555,-3.4913392,2.1434171,1.9682132,1563.97,-785.64)"
       gradientUnits="userSpaceOnUse">
      <stop
         offset="0"
         stop-color="#fff"
         stop-opacity=".85"
         id="stop74" />
      <stop
         offset=".58"
         stop-color="#fff"
         stop-opacity=".5"
         id="stop75" />
      <stop
         offset="1"
         stop-color="#fff"
         stop-opacity="0"
         id="stop76" />
    </radialGradient>
    <radialGradient
       id="radial-gradient-5"
       cx="-84.169998"
       cy="-517"
       fx="-84.169998"
       fy="-517"
       r="0.50999999"
       gradientTransform="matrix(2.8098843,-0.0255024,-0.0255024,-2.8098843,423.75,-1316.02)"
       xlink:href="#radial-gradient-4" />
    <radialGradient
       id="radial-gradient-6"
       cx="113.65"
       cy="-520.81"
       fx="113.65"
       fy="-520.81"
       r="0.55000001"
       gradientTransform="matrix(1.7999259,-0.01633606,-0.02559316,-2.8198839,-10.67,-1341.71)"
       xlink:href="#radial-gradient" />
    <radialGradient
       id="radial-gradient-7"
       cx="-90.150002"
       cy="-466.53"
       fx="-90.150002"
       fy="-466.53"
       r="0.54000002"
       gradientTransform="matrix(2.8733676,0.30961077,0.43281229,-4.0167491,667.46,-1719.51)"
       gradientUnits="userSpaceOnUse">
      <stop
         offset="0"
         stop-color="#341000"
         id="stop77" />
      <stop
         offset=".54"
         stop-color="#341000"
         stop-opacity=".5"
         id="stop78" />
      <stop
         offset="1"
         stop-color="#341000"
         stop-opacity="0"
         id="stop79" />
    </radialGradient>
    <radialGradient
       id="radial-gradient-8"
       cx="-433.63"
       cy="3980.8601"
       fx="-433.63"
       fy="3980.8601"
       r="0.62"
       gradientTransform="matrix(3.506857,31.917927,0.21868402,-0.02402705,856.6,14066.6)"
       gradientUnits="userSpaceOnUse">
      <stop
         offset="0"
         stop-color="#341000"
         stop-opacity=".5"
         id="stop80" />
      <stop
         offset="1"
         stop-color="#341000"
         stop-opacity="0"
         id="stop81" />
    </radialGradient>
    <radialGradient
       id="radial-gradient-9"
       cx="-439.26999"
       cy="6689.9399"
       fx="-439.26999"
       fy="6689.9399"
       r="1.62"
       gradientTransform="matrix(-2.4792876,28.281535,0.13946513,0.01222615,-1864.44,12474.32)"
       xlink:href="#radial-gradient-8" />
    <radialGradient
       id="radial-gradient-10"
       cx="-440.89001"
       cy="-2199.5701"
       fx="-440.89001"
       fy="-2199.5701"
       r="1.8200001"
       gradientTransform="matrix(-3.9217661,43.513628,-0.58761824,-0.05296045,-2823.19,19202.83)"
       gradientUnits="userSpaceOnUse">
      <stop
         offset="0"
         stop-color="#fff"
         stop-opacity=".7"
         id="stop82" />
      <stop
         offset=".7"
         stop-color="#fff"
         stop-opacity="0"
         id="stop83" />
      <stop
         offset="1"
         stop-color="#fff"
         stop-opacity="0"
         id="stop84" />
    </radialGradient>
    <radialGradient
       id="radial-gradient-11"
       cx="-428.01999"
       cy="1006.82"
       fx="-428.01999"
       fy="1006.82"
       r="1.66"
       gradientTransform="matrix(18.312513,36.761349,0.50125043,-0.24969582,7527.31,16117.54)"
       gradientUnits="userSpaceOnUse">
      <stop
         offset="0"
         stop-color="#fff"
         stop-opacity=".7"
         id="stop85" />
      <stop
         offset=".94"
         stop-color="#fff"
         stop-opacity="0"
         id="stop86" />
      <stop
         offset="1"
         stop-color="#fff"
         stop-opacity="0"
         id="stop87" />
    </radialGradient>
    <radialGradient
       id="radial-gradient-12"
       cx="-423.51999"
       cy="1556.99"
       fx="-423.51999"
       fy="1556.99"
       r="1.85"
       gradientTransform="matrix(14.187765,28.593596,0.36727363,-0.18223632,5635.63,12522.4)"
       xlink:href="#radial-gradient-8" />
    <radialGradient
       id="radial-gradient-13"
       cx="-436.56"
       cy="-8385.5303"
       fx="-436.56"
       fy="-8385.5303"
       r="1.28"
       gradientTransform="matrix(13.090718,-28.409004,-0.11806811,-0.05440516,4954.22,-12716.22)"
       xlink:href="#radial-gradient-8" />
    <radialGradient
       id="radial-gradient-14"
       cx="-449.87"
       cy="2665.6399"
       fx="-449.87"
       fy="2665.6399"
       r="1.26"
       gradientTransform="matrix(-15.570061,33.6967,0.29048879,0.13422467,-7583.73,14926.16)"
       xlink:href="#radial-gradient-11" />
    <radialGradient
       id="radial-gradient-15"
       cx="-436.17999"
       cy="-2185.51"
       fx="-436.17999"
       fy="-2185.51"
       r="0.41999999"
       gradientTransform="matrix(4.7638016,42.604496,-0.55653179,0.06222834,1076.78,18852.6)"
       xlink:href="#radial-gradient-11" />
    <linearGradient
       id="linear-gradient-11"
       x1="246.13"
       y1="-620.67999"
       x2="246.61"
       y2="-620.67999"
       gradientTransform="matrix(1.4399407,-0.01306885,-0.01306885,-1.4399407,-148.9,-753.52)"
       gradientUnits="userSpaceOnUse">
      <stop
         offset="0"
         stop-color="#fcdf00"
         id="stop88" />
      <stop
         offset=".93"
         stop-color="#fcdf00"
         id="stop89" />
      <stop
         offset="1"
         stop-color="#fcdf00"
         id="stop90" />
    </linearGradient>
    <linearGradient
       id="linear-gradient-12"
       x1="-445.76001"
       y1="-469.12"
       x2="-445.23001"
       y2="-469.12"
       gradientTransform="matrix(4.7595564,-32.705491,-32.705491,-4.7595564,-13003.1,-16672.87)"
       gradientUnits="userSpaceOnUse">
      <stop
         offset="0"
         stop-color="#fcdf00"
         id="stop91" />
      <stop
         offset="0"
         stop-color="#fcdf00"
         id="stop92" />
      <stop
         offset=".26"
         stop-color="#663411"
         id="stop93" />
      <stop
         offset=".82"
         stop-color="#663411"
         id="stop94" />
      <stop
         offset=".99"
         stop-color="#fcdf00"
         id="stop95" />
      <stop
         offset="1"
         stop-color="#fcdf00"
         id="stop96" />
    </linearGradient>
    <linearGradient
       id="linear-gradient-13"
       x1="-441.45001"
       y1="-474.56"
       x2="-440.92001"
       y2="-474.56"
       gradientTransform="matrix(7.64507,-27.071199,-27.071199,-7.64507,-9254.99,-15439.56)"
       gradientUnits="userSpaceOnUse">
      <stop
         offset="0"
         stop-color="#663411"
         id="stop97" />
      <stop
         offset=".03"
         stop-color="#663411"
         id="stop98" />
      <stop
         offset=".35"
         stop-color="#fcdf00"
         id="stop99" />
      <stop
         offset=".68"
         stop-color="#fcdf00"
         id="stop100" />
      <stop
         offset=".98"
         stop-color="#663411"
         id="stop101" />
      <stop
         offset="1"
         stop-color="#663411"
         id="stop102" />
    </linearGradient>
    <radialGradient
       id="radial-gradient-16"
       cx="225.56"
       cy="-257.26999"
       fx="225.56"
       fy="-257.26999"
       r="0.57999998"
       gradientTransform="matrix(1.3628162,-0.27355453,0.45264418,2.2550196,35.59,766.6)"
       gradientUnits="userSpaceOnUse">
      <stop
         offset="0"
         stop-color="#fff"
         stop-opacity=".85"
         id="stop103" />
      <stop
         offset=".73"
         stop-color="#fff"
         stop-opacity=".5"
         id="stop104" />
      <stop
         offset="1"
         stop-color="#fff"
         stop-opacity="0"
         id="stop105" />
    </radialGradient>
    <radialGradient
       id="radial-gradient-17"
       cx="-168.35001"
       cy="-555.37"
       fx="-168.35001"
       fy="-555.37"
       r="0.5"
       gradientTransform="matrix(3.2157629,1.5732987,-0.93606876,1.9132891,238.32,1466.12)"
       gradientUnits="userSpaceOnUse">
      <stop
         offset="0"
         stop-color="#fff"
         stop-opacity=".85"
         id="stop106" />
      <stop
         offset=".71"
         stop-color="#fff"
         stop-opacity=".5"
         id="stop107" />
      <stop
         offset="1"
         stop-color="#fff"
         stop-opacity="0"
         id="stop108" />
    </radialGradient>
    <radialGradient
       id="radial-gradient-18"
       cx="-260.60001"
       cy="-396.29001"
       fx="-260.60001"
       fy="-396.29001"
       r="0.52999997"
       gradientTransform="matrix(5.4097772,-0.04909893,0.04909893,5.4097772,1649.85,2262.24)"
       xlink:href="#radial-gradient-7" />
    <linearGradient
       id="linear-gradient-14"
       x1="-538.34998"
       y1="-348.38"
       x2="-537.77002"
       y2="-348.38"
       gradientTransform="matrix(-4.198342,-6.045124,6.609104,-3.8596061,268.03,-4474.42)"
       gradientUnits="userSpaceOnUse">
      <stop
         offset="0"
         stop-color="#fcdf00"
         id="stop109" />
      <stop
         offset=".01"
         stop-color="#fcdf00"
         id="stop110" />
      <stop
         offset=".13"
         stop-color="#341000"
         stop-opacity="0"
         id="stop111" />
      <stop
         offset=".29"
         stop-color="#341000"
         id="stop112" />
      <stop
         offset=".81"
         stop-color="#341000"
         stop-opacity=".5"
         id="stop113" />
      <stop
         offset="1"
         stop-color="#341000"
         stop-opacity="0"
         id="stop114" />
    </linearGradient>
    <radialGradient
       id="radial-gradient-19"
       cx="-243.89999"
       cy="-392.63"
       fx="-243.89999"
       fy="-392.63"
       r="0.52999997"
       gradientTransform="matrix(4.9597957,-0.04501491,0.04501491,4.9597957,1447.18,2068.42)"
       gradientUnits="userSpaceOnUse">
      <stop
         offset="0"
         stop-color="#fff"
         stop-opacity=".85"
         id="stop115" />
      <stop
         offset=".46"
         stop-color="#fff"
         stop-opacity=".5"
         id="stop116" />
      <stop
         offset="1"
         stop-color="#fff"
         stop-opacity="0"
         id="stop117" />
    </radialGradient>
    <linearGradient
       id="linear-gradient-15"
       x1="-352.12"
       y1="-332.56"
       x2="-351.59"
       y2="-332.56"
       gradientTransform="matrix(3.5012373,6.3713607,6.3713607,-3.5012373,3566.84,1216.54)"
       gradientUnits="userSpaceOnUse">
      <stop
         offset="0"
         stop-color="#fcdf00"
         id="stop118" />
      <stop
         offset=".11"
         stop-color="#341000"
         id="stop119" />
      <stop
         offset=".54"
         stop-color="#341000"
         stop-opacity=".5"
         id="stop120" />
      <stop
         offset="1"
         stop-color="#341000"
         stop-opacity="0"
         id="stop121" />
    </linearGradient>
    <linearGradient
       inkscape:collect="always"
       xlink:href="#linear-gradient-5"
       id="linearGradient296"
       gradientUnits="userSpaceOnUse"
       gradientTransform="matrix(0.26074163,28.728817,28.728817,-0.26074163,11873.6,12534.57)"
       x1="-435.70999"
       y1="-402.19"
       x2="-435.16"
       y2="-402.19" />
    <radialGradient
       inkscape:collect="always"
       xlink:href="#radial-gradient"
       id="radialGradient296"
       gradientUnits="userSpaceOnUse"
       gradientTransform="matrix(1.4017323,-0.44277153,0.89457922,2.8320713,189.32,944.74)"
       cx="168.03"
       cy="-262.95001"
       fx="168.03"
       fy="-262.95001"
       r="0.47999999" />
    <radialGradient
       inkscape:collect="always"
       xlink:href="#radial-gradient-2"
       id="radialGradient297"
       gradientUnits="userSpaceOnUse"
       gradientTransform="matrix(3.1298711,-0.02840659,-0.01833269,-2.0199168,553.24,-965.16)"
       cx="-118.17"
       cy="-547.53003"
       fx="-118.17"
       fy="-547.53003"
       r="0.51999998" />
    <radialGradient
       inkscape:collect="always"
       xlink:href="#radial-gradient-4"
       id="radialGradient298"
       gradientUnits="userSpaceOnUse"
       gradientTransform="matrix(3.2059555,-3.4913392,2.1434171,1.9682132,1563.97,-785.64)"
       cx="-335.10001"
       cy="-132.34"
       fx="-335.10001"
       fy="-132.34"
       r="0.57999998" />
    <radialGradient
       inkscape:collect="always"
       xlink:href="#radial-gradient-7"
       id="radialGradient299"
       gradientUnits="userSpaceOnUse"
       gradientTransform="matrix(2.8733676,0.30961077,0.43281229,-4.0167491,667.46,-1719.51)"
       cx="-90.150002"
       cy="-466.53"
       fx="-90.150002"
       fy="-466.53"
       r="0.54000002" />
    <radialGradient
       inkscape:collect="always"
       xlink:href="#radial-gradient-8"
       id="radialGradient300"
       gradientUnits="userSpaceOnUse"
       gradientTransform="matrix(3.506857,31.917927,0.21868402,-0.02402705,856.6,14066.6)"
       cx="-433.63"
       cy="3980.8601"
       fx="-433.63"
       fy="3980.8601"
       r="0.62" />
    <radialGradient
       inkscape:collect="always"
       xlink:href="#radial-gradient-11"
       id="radialGradient301"
       gradientUnits="userSpaceOnUse"
       gradientTransform="matrix(18.312513,36.761349,0.50125043,-0.24969582,7527.31,16117.54)"
       cx="-428.01999"
       cy="1006.82"
       fx="-428.01999"
       fy="1006.82"
       r="1.66" />
  </defs>
  <g
     filter="url(#outer-glow-1)"
     id="g248"
     transform="translate(-0.01175292,2.9018237e-5)" />
  <g
     id="g301">
    <g
       id="g39"
       transform="translate(-0.01175292,2.9018237e-5)">
      <g
         id="g247">
        <g
           id="g172">
          <path
             d="m 233.61,105.51 c 0.65,-0.38 1.57,1.07 1.57,1.07 -0.14,0.57 -1.26,0.8 -1.26,0.8 -0.2,-0.28 -0.3,-1.87 -0.3,-1.87 z"
             fill="#eace86"
             id="path121" />
          <path
             d="m 229.12,103.72 c -0.07,-0.17 -1.57,-3.94 -5.72,-2.52 0,0 0.57,-1.33 3.62,-0.96 0,0 2.17,0.62 2.1,3.48 z"
             fill="#c1a361"
             id="path122" />
          <path
             d="m 223.4,101.2 c 4.15,-1.42 5.65,2.35 5.72,2.52 0.07,-2.86 -2.1,-3.48 -2.1,-3.48 -3.05,-0.37 -3.62,0.96 -3.62,0.96 z m -1.7,8.26 c 0,0 0.56,-5.36 -2.3,-7.81 0,0 4.33,-3.67 8.15,-2.35 0,0 2.15,0.68 2.93,3.07 0,0 1.53,3.62 1.25,4.62 0,0 -0.1,1.3 -4.32,1.68 0,0 -2.24,0.46 -5.72,0.79 z"
             fill="#eace86"
             id="path123" />
          <path
             d="m 211.18,104.86 c 5.24,-1.33 6.32,1.33 6.32,1.33 -0.31,-3.08 -2.69,-2.58 -2.69,-2.58 -3.91,0.41 -3.64,1.26 -3.64,1.26 z m -4.12,5.58 c 0,0 -2.14,-2.57 -0.46,-5.29 0,0 1,-1.68 4.83,-2.22 0,0 3.06,-0.54 5.43,-0.18 0,0 1.75,0.19 2.54,3.16 0,0 0.37,2.64 0.3,3.81 0,0 -11.4,1.03 -12.63,0.72 z"
             fill="#eace86"
             id="path124" />
          <path
             d="m 216.62,95.06 c -0.66,-0.16 -2.7,-2.84 -2.7,-2.84 0.49,-0.25 1.6,0.61 1.6,0.61 0.51,0.74 3.88,3.49 3.88,3.49 -0.59,0.17 -2.78,-1.26 -2.78,-1.26 z"
             fill="#c1a361"
             id="path125" />
          <path
             d="m 213.92,92.22 c 0,0 2.04,2.68 2.7,2.84 0,0 2.19,1.43 2.78,1.26 0,0 -3.36,-2.75 -3.88,-3.49 0,0 -1.11,-0.86 -1.6,-0.61 z m -0.49,6.74 c 0.58,-1.62 -3.41,-5.63 -3.41,-5.63 2.98,-3.6 5.51,-2.21 5.51,-2.21 7.3,3.73 6.28,6.3 6.14,6.81 -3.51,1.76 -4.45,2.86 -4.45,2.86 -2.86,-0.42 -4.02,0.13 -4.14,0.2 0.25,-0.2 0.36,-2.03 0.36,-2.03 z"
             fill="#eace86"
             id="path126" />
          <path
             d="m 217.51,106.19 c 0,0 -1.08,-2.65 -6.32,-1.33 0,0 -0.28,-0.85 3.64,-1.26 0,0 2.38,-0.5 2.69,2.58 z"
             fill="#c1a361"
             id="path127" />
          <path
             d="m 206.61,84.18 c 1.45,0.13 3.58,3.42 3.72,3.63 -2.99,-2.98 -6.26,-3.33 -6.26,-3.33 0.86,-0.78 2.55,-0.3 2.55,-0.3 z"
             fill="#c1a361"
             id="path128" />
          <path
             d="m 208.53,97.26 c -1.78,-1.91 -2.52,-2.27 -2.82,-2.26 l 0.31,-1.43 c 1.46,0.34 4.48,1.54 5.32,5.81 0,0 -0.08,1.95 -2.16,2.1 l -0.08,-1.37 c 0.27,-1.85 -0.57,-2.85 -0.57,-2.85 z"
             fill="#eace86"
             id="path129" />
          <path
             d="m 209.1,100.11 c 0,0 -2.76,-4.71 -3.6,-4.95 0,0 0.02,-0.15 0.21,-0.16 0.31,0 1.05,0.35 2.82,2.26 0,0 0.83,0.99 0.57,2.85 z"
             fill="#c1a361"
             id="path130" />
          <path
             d="m 200.74,100.43 c 0,0 -2.81,-0.21 -3.17,-0.13 0,0 -1.56,-2.14 1.41,-4.04 0,0 3.88,-2.95 6.24,-2.82 0,0 0.31,0.02 0.8,0.13 L 205.71,95 c -0.19,0 -0.21,0.16 -0.21,0.16 0.84,0.24 3.6,4.95 3.6,4.95 l 0.08,1.37 c 0,0 -3.12,0.83 -3.66,1.96 0,0 -0.41,-2.85 -4.78,-3 z"
             fill="#eace86"
             id="path131" />
          <path
             d="m 210.33,87.8 c -0.14,-0.21 -2.27,-3.5 -3.72,-3.63 0,0 -1.68,-0.48 -2.55,0.3 0,0 3.27,0.34 6.26,3.33 z m -10.83,1.74 c -2.3,-2.55 0.55,-4.57 0.55,-4.57 2.22,-2.33 5.97,-2.09 5.97,-2.09 5.89,1.73 6.36,6.13 6.36,6.13 -0.99,-0.05 -4.22,3.19 -4.22,3.19 -2.92,-2.17 -5.95,0.03 -5.95,0.03 -0.26,0.19 -2.71,-2.69 -2.71,-2.69 z"
             fill="#eace86"
             id="path132" />
          <path
             d="m 200.2,103.97 c 0,0 0.06,-0.04 0.08,-0.07 0,0 -0.02,0.03 -0.08,0.07 z m -7.55,1.1 c 0.88,0.08 3.42,-0.06 3.42,-0.06 2.52,0.05 3.8,-0.79 4.12,-1.05 -0.67,0.39 -4.65,0.44 -4.65,0.44 -2.82,-0.32 -2.89,0.67 -2.89,0.67 z m -1.02,5.33 c 0,0 -2.66,-5.82 0.79,-7.17 0.04,0.1 1.48,-1.07 7.85,-1.15 0,0 3.17,-0.13 3.76,2.92 0,0 0.23,5.29 -0.44,5.67 0,0 -10.7,0.2 -11.95,-0.28 z"
             fill="#eace86"
             id="path133" />
          <path
             d="m 195.58,91.48 c -1.15,1.35 -5.01,5.67 -4.5,5.38 4.34,-2.11 4.5,-5.38 4.5,-5.38 z m -1.76,8.45 c 0,0 -2.52,-2.05 -4.83,-1.89 0,0 0.45,-3.08 3.06,-5.33 0,0 2.6,-2.95 4.99,-2.53 0,0 2.01,1.31 2.71,3.19 0,0 -2.93,2.01 -3.9,3.31 0,0 -1.17,1.04 -0.4,3.7 0,0 -0.06,0.68 -1.62,-0.45 z"
             fill="#eace86"
             id="path134" />
          <path
             d="m 196.07,105.02 c 0,0 -2.54,0.14 -3.42,0.06 0,0 0.08,-0.99 2.89,-0.67 0,0 3.98,-0.05 4.65,-0.44 -0.32,0.25 -1.6,1.1 -4.12,1.05 z"
             fill="#c1a361"
             id="path135" />
          <path
             d="m 191.08,96.86 c -0.51,0.29 3.35,-4.03 4.5,-5.38 0,0 -0.16,3.27 -4.5,5.38 z"
             fill="#c1a361"
             id="path136" />
          <path
             d="m 189.01,101.57 c -0.2,-0.04 -4.15,-0.88 -5.3,2.18 -0.04,-0.11 -0.58,-1.81 1.66,-2.81 0,0 2.35,-0.48 3.64,0.62 z"
             fill="#c1a361"
             id="path137" />
          <path
             d="m 189.01,101.57 c -1.3,-1.1 -3.64,-0.62 -3.64,-0.62 -2.23,1 -1.7,2.7 -1.66,2.81 1.15,-3.07 5.1,-2.22 5.3,-2.18 z m -7.6,7.48 c 0,0 -1.53,0.33 0.63,-5.82 0,0 1,-4.39 4.91,-3.75 0,0 6.46,1.13 5.22,1.79 0,0 -2.78,0.65 -3.32,3.86 0,0 -0.14,4.96 0.34,4.99 0,0 -6.66,-0.32 -7.78,-1.06 z"
             fill="#eace86"
             id="path138" />
          <path
             d="m 178.68,65.77 c 0,0 -2.4,0.38 -2.81,-1.93 0,0 -0.51,-2.22 2.34,-2.61 0,0 2.28,-0.35 2.58,2.46 0,0 -0.36,2.07 -2.12,2.08 z"
             fill="#a949b7"
             id="path139" />
          <path
             d="M 192.96,153.59 C 180,146.26 179.14,134.97 179.14,134.97 l -0.45,-24.68 c 5.06,2.52 16.81,2.53 16.81,2.53 5.96,0.69 25.11,-0.9 25.11,-0.9 5.5,-0.2 9.23,-1.03 11.58,-1.8 2.35,-0.77 3.32,-1.49 3.32,-1.49 l 0.26,16.75 c 2.13,21.26 -12.12,27.62 -12.12,27.62 -13.29,7.95 -30,1.74 -30.7,0.59 z"
             fill="#348241"
             id="path140" />
          <path
             d="m 167.61,120.13 c -1.24,-0.29 -2.78,-0.54 -4.66,-0.67 l 0.02,-0.2 c 0,0 5.74,-8.81 12.43,-5.45 l 0.17,3.82 c 0,0 -3.44,-2.27 -7.95,2.47 v 0.02 z"
             fill="#348241"
             id="path141" />
          <path
             d="m 180.8,63.69 c -0.3,-2.81 -2.58,-2.46 -2.58,-2.46 -2.86,0.39 -2.34,2.61 -2.34,2.61 0.41,2.31 2.81,1.93 2.81,1.93 1.77,-0.01 2.12,-2.08 2.12,-2.08 z m -13.87,0.95 c 0.74,-1.85 2.24,-4.11 5.32,-5.71 0,0 7.43,-2.91 11.69,1.82 0,0 5.41,4.64 1.56,12.55 0,0 -1.39,2.95 -5.72,4.38 q 0,0 0,-0.01 c 0,0 -2.11,0.25 -4.08,0.22 -0.99,-0.01 -1.95,-0.09 -2.59,-0.3 0,0 -6.59,-1.62 -6.89,-9.7 0,0 0,-0.14 0.02,-0.39 0.04,-0.54 0.19,-1.61 0.69,-2.86 z"
             fill="#266d35"
             id="path142" />
          <path
             d="m 163.63,138.04 c 1.27,-0.21 2.8,-0.55 4.32,-1.07 l 0.06,0.18 c 0,0 3.36,5.74 9.38,3.31 0,0 0.73,2.27 1.59,3.34 0,0 -3.72,3.05 -10.5,-0.42 0,0 -3.58,-2.93 -4.84,-5.34 z"
             fill="#348241"
             id="path143" />
          <path
             d="m 146.36,101.65 c -7.64,1.12 -11.88,-0.14 -12.34,-0.26 17.04,-2.64 26.58,-7.87 26.24,-8.37 -8.3,-1.72 -9.55,-6.01 -9.55,-6.01 -0.33,-3.06 2.15,-1.86 2.15,-1.86 5.42,7.09 12.14,5.18 12.14,5.18 7.56,-4.38 10.63,-12.21 10.72,-12.45 1.97,0.02 4.08,-0.22 4.08,-0.22 q 0,0 0,0.01 c -0.99,3.47 -3.79,7.06 -3.79,7.06 -2.43,4.07 -10.53,9.71 -10.53,9.71 -0.09,0.07 -0.19,0.14 -0.29,0.21 -1.7,1.45 -9.91,4.77 -11.44,5.39 v 0 c -1.2,0.34 -2.35,0.63 -3.44,0.87 -1.4,0.32 -2.71,0.56 -3.92,0.74 z"
             fill="#266d35"
             id="path144" />
          <path
             d="m 235.18,106.58 c 0,0 -0.91,-1.45 -1.57,-1.07 0,0 0.1,1.59 0.3,1.87 0,0 1.12,-0.23 1.26,-0.8 z m -13.48,2.88 c 3.48,-0.33 5.72,-0.79 5.72,-0.79 4.21,-0.38 4.32,-1.68 4.32,-1.68 0.27,-1 -1.25,-4.62 -1.25,-4.62 -0.79,-2.4 -2.93,-3.07 -2.93,-3.07 -3.82,-1.31 -8.15,2.35 -8.15,2.35 2.86,2.45 2.3,7.81 2.3,7.81 z m -8.62,-8.47 c 0.12,-0.06 1.28,-0.62 4.14,-0.2 0,0 0.94,-1.1 4.45,-2.86 0.14,-0.51 1.16,-3.08 -6.14,-6.81 0,0 -2.53,-1.39 -5.51,2.21 0,0 3.99,4.01 3.41,5.63 0,0 -0.11,1.83 -0.36,2.03 z m -6.02,9.45 c 1.23,0.31 12.63,-0.72 12.63,-0.72 0.08,-1.17 -0.3,-3.81 -0.3,-3.81 -0.8,-2.97 -2.54,-3.16 -2.54,-3.16 -2.37,-0.36 -5.43,0.18 -5.43,0.18 -3.83,0.54 -4.83,2.22 -4.83,2.22 -1.68,2.71 0.46,5.29 0.46,5.29 z m -9.49,-10.14 c 0.36,-0.08 3.17,0.13 3.17,0.13 4.37,0.16 4.78,3 4.78,3 0.54,-1.13 3.66,-1.96 3.66,-1.96 2.08,-0.16 2.16,-2.1 2.16,-2.1 -0.84,-4.26 -3.86,-5.47 -5.32,-5.81 -0.49,-0.11 -0.8,-0.13 -0.8,-0.13 -2.37,-0.12 -6.24,2.82 -6.24,2.82 -2.97,1.89 -1.41,4.04 -1.41,4.04 z m 8.45,-17.41 c 0,0 -3.75,-0.24 -5.97,2.09 0,0 -2.86,2.02 -0.55,4.57 0,0 2.46,2.88 2.71,2.69 0,0 3.03,-2.2 5.95,-0.03 0,0 3.23,-3.24 4.22,-3.19 0,0 -0.47,-4.4 -6.36,-6.13 z m -14.39,27.51 c 1.26,0.49 11.95,0.28 11.95,0.28 0.67,-0.38 0.44,-5.67 0.44,-5.67 -0.59,-3.06 -3.76,-2.92 -3.76,-2.92 -6.36,0.07 -7.81,1.25 -7.85,1.15 -3.45,1.35 -0.79,7.17 -0.79,7.17 z m -2.64,-12.36 c 2.31,-0.16 4.83,1.89 4.83,1.89 1.56,1.13 1.62,0.45 1.62,0.45 -0.77,-2.66 0.4,-3.7 0.4,-3.7 0.97,-1.3 3.9,-3.31 3.9,-3.31 -0.7,-1.88 -2.71,-3.19 -2.71,-3.19 -2.39,-0.42 -4.99,2.53 -4.99,2.53 -2.6,2.24 -3.06,5.33 -3.06,5.33 z m -7.58,11.01 c 1.12,0.74 7.78,1.06 7.78,1.06 -0.48,-0.03 -0.34,-4.99 -0.34,-4.99 0.54,-3.21 3.32,-3.86 3.32,-3.86 1.23,-0.65 -5.22,-1.79 -5.22,-1.79 -3.91,-0.64 -4.91,3.75 -4.91,3.75 -2.16,6.15 -0.63,5.82 -0.63,5.82 z m 14.1,3.77 c 0,0 -11.76,-0.01 -16.81,-2.53 l 0.45,24.68 c 0,0 0.86,11.3 13.82,18.62 0.69,1.15 17.41,7.36 30.7,-0.59 0,0 14.25,-6.37 12.12,-27.62 l -0.26,-16.75 c 0,0 -0.98,0.72 -3.32,1.49 -2.34,0.77 -6.08,1.6 -11.58,1.8 0,0 -19.15,1.59 -25.11,0.9 z m -24.32,34.88 c 0,0 -8.56,-2.27 -10.38,-9.07 v -0.02 c 0,-0.07 0,-0.14 -0.02,-0.21 v 0 c 0.42,-0.04 1.48,-0.13 2.84,-0.36 1.27,2.41 4.84,5.34 4.84,5.34 6.79,3.47 10.5,0.42 10.5,0.42 -0.86,-1.07 -1.59,-3.34 -1.59,-3.34 -6.02,2.43 -9.38,-3.31 -9.38,-3.31 l -0.06,-0.18 c 0.98,-0.33 1.94,-0.74 2.83,-1.25 l 0.04,0.07 c 3.43,3.66 5.58,1.81 5.58,1.81 0,-0.18 -0.24,-5.05 -0.46,-9.5 -0.19,-3.8 -0.37,-7.3 -0.37,-7.3 -2.24,-1.71 -4.62,0.41 -4.62,0.41 l -0.04,0.08 c -0.77,-0.4 -1.83,-0.81 -3.29,-1.15 v -0.02 c 4.52,-4.74 7.96,-2.47 7.96,-2.47 l -0.17,-3.82 c -6.69,-3.36 -12.43,5.45 -12.43,5.45 l -0.02,0.2 c -0.38,-0.03 -0.76,-0.05 -1.17,-0.07 0,0 -0.88,-0.19 -2.35,-0.58 v 0 c -0.1,-0.77 3.16,-4.13 3.16,-4.13 h -0.02 c 0.3,-0.33 6.07,-6.14 12.83,-4.25 0,0 -1.08,-4.76 3.89,-6.14 0,0 1.15,-7.82 7.67,-6.75 0,0 -0.72,-2.92 4.28,-7.19 0,-0.01 0.02,-0.02 0.03,-0.03 4.3,-3.54 4.29,-2.26 5.27,-2.2 0,0 -0.86,-3.7 4,-5.99 -0.21,0.54 2.68,-3.11 8.8,-0.35 2.05,0.92 4.82,3.2 5.23,7.36 0,-0.17 0.08,-1.71 5.08,1.64 0.37,0.45 4.11,3.38 4.75,6.19 7.82,-1.18 8.18,5.31 8.18,5.31 5.18,1.54 5.44,3.04 5.44,3.04 1.07,1.66 1.16,29.04 0.38,31.04 -1.38,13.81 -14.6,19.89 -14.6,19.89 -9.7,5.41 -23.54,3.09 -23.54,3.09 -15.61,-3.08 -19.35,-12.67 -19.35,-12.67 -4.39,2.26 -9.72,1.02 -9.72,1.02 z"
             fill="#a949b7"
             id="path145" />
          <path
             d="m 155.08,117.56 c -0.69,-1.5 -7.36,-15.74 -8.7,-15.71 l -0.03,-0.2 c 1.22,-0.17 2.53,-0.42 3.92,-0.74 l 0.06,0.24 c 0,0 4.8,8.27 4.74,8.93 0,0 6.99,4.21 7.47,4.58 v 0 c 0,0 0.01,0 0.02,0.01 0,0 -3.26,3.36 -3.16,4.13 -1.14,-0.3 -2.62,-0.71 -4.33,-1.25 v 0 z"
             fill="#266d35"
             id="path146" />
          <path
             d="m 133.38,65.86 c 0,0 -0.46,-2.01 2.13,-2.36 0,0 2.06,-0.32 2.34,2.23 0,0 -0.33,1.87 -1.93,1.88 0,0 -2.17,0.34 -2.54,-1.75 z"
             fill="#a949b7"
             id="path147" />
          <path
             d="m 141.14,34.72 -11.55,2.9 1.76,-12.83 C 131.62,22.69 133,23.5 133,23.5 l 8.14,11.23 z"
             fill="#a949b7"
             id="path148" />
          <path
             d="m 143.73,137.49 c -1.84,-0.63 -10.1,-3.38 -11.52,-6.37 h 0.01 c 7.67,3.65 20.16,4.49 20.16,4.49 10.41,1.01 16.08,-1.8 16.57,-2.38 6.28,-6.16 -0.29,-10.27 -2.65,-10.53 -1.68,-0.2 -4.18,-0.53 -6.39,-0.89 -2.22,-0.37 -4.14,-0.78 -4.67,-1.13 -13.74,-3.67 -19.16,-10.87 -21.26,-11.44 l 0.02,-0.13 c 1.19,0.27 7.4,2.83 7.4,2.83 4.71,2.54 9.78,4.4 13.68,5.62 v 0 c 1.71,0.54 3.2,0.95 4.33,1.25 v 0 c 1.47,0.39 2.35,0.58 2.35,0.58 0.41,0.02 0.79,0.04 1.17,0.07 1.88,0.13 3.42,0.37 4.66,0.67 1.46,0.34 2.53,0.76 3.29,1.15 1.56,0.81 1.92,1.55 1.92,1.55 0.94,1.55 1.44,2.99 1.77,5.33 0,0.11 0.01,0.21 0.01,0.31 0.09,3.6 -1.91,5.87 -1.91,5.87 -0.56,0.52 -1.22,0.97 -1.91,1.37 -0.89,0.51 -1.85,0.92 -2.83,1.25 -1.52,0.52 -3.05,0.86 -4.32,1.07 -1.36,0.23 -2.42,0.32 -2.84,0.35 -0.13,0 -0.2,0 -0.2,0 -0.15,0.08 -1.24,0.18 -2.84,0.23 -3.88,0.14 -10.72,0.04 -14.02,-1.15 z"
             fill="#266d35"
             id="path149" />
          <path
             d="m 135.51,63.5 c -2.59,0.35 -2.13,2.36 -2.13,2.36 0.37,2.09 2.54,1.75 2.54,1.75 1.6,-0.01 1.93,-1.88 1.93,-1.88 -0.27,-2.54 -2.34,-2.23 -2.34,-2.23 z m -0.16,11.38 c 0,0 -5.5,-0.45 -5.99,-6.99 v -0.02 c 0.07,-0.98 0.72,-6.26 7.02,-7.05 v 0 c 0,0 9.5,0.15 7.29,9.82 0,0 -2.68,5.74 -8.32,4.24 z"
             fill="#266d35"
             id="path150" />
          <path
             d="m 106.33,27.64 c -0.41,-2.08 1.17,-1.74 1.17,-1.74 l 11.24,8.13 -10.07,6.36 -2.33,-12.74 z"
             fill="#a949b7"
             id="path151" />
          <path
             d="m 106.42,60.89 c -5.57,-1.24 -6.94,-6.04 -6.86,-6.29 -0.92,-5.6 4.6,-7.25 4.6,-7.25 6.89,-1.16 9.75,6.17 9.75,6.17 -6.72,-4.51 -8.5,-2 -8.5,-2 -5.27,3.79 0.79,9.17 1.01,9.37 z"
             fill="#316638"
             id="path152" />
          <path
             d="m 63.69,67.88 3.73,-11.32 -13.84,0.87 c 0,0 -1.43,0.74 0.21,2.09 l 9.9,8.35 z m -9.67,79.04 c 0,0 -0.47,1.54 1.63,1.32 l 12.9,-1.17 -5.43,-10.6 -9.11,10.46 z m 4.69,-45.27 0.25,-11.91 -12.98,4.89 c 0,0 -1.15,1.13 0.81,1.94 z m -12.98,18.48 c 0,0 -0.92,1.32 1.17,1.75 l 12.66,2.73 -2.01,-11.74 z m 16.66,42.14 -8.33,-8.52 -5.6,12.69 c 0,0 0,1.61 1.95,0.77 l 11.97,-4.94 z M 38.59,98.06 39.44,86.18 26.23,90.41 c 0,0 -1.2,1.07 0.71,1.97 l 11.64,5.67 z M 31.07,64.04 c 0,0 -1.42,0.75 0.22,2.09 l 9.94,8.31 3.68,-11.33 z m -0.6,83.1 c 0,0 -0.54,1.52 1.58,1.39 L 44.99,147.89 40,137.08 30.47,147.15 Z m -4.44,-26.61 12.39,3.78 -1.02,-11.87 -12.38,6.25 c 0,0 -1.02,1.24 1.02,1.84 z m 103.55,-82.92 11.55,-2.9 -8.14,-11.23 c 0,0 -1.39,-0.81 -1.65,1.29 L 129.58,37.6 Z M 107.5,25.9 c 0,0 -1.57,-0.34 -1.17,1.74 l 2.33,12.74 10.07,-6.36 -11.24,-8.13 z M 81.47,85.74 82.54,73.88 69.26,77.86 c 0,0 -1.22,1.05 0.68,1.99 z M 84.26,47.6 91.71,38.31 78.44,34.29 c 0,0 -1.6,0.2 -0.53,2.03 L 84.27,47.6 Z M 83.49,66.84 88.66,56.11 74.82,55.17 c 0,0 -1.51,0.55 -0.06,2.1 z m 5.02,-37.65 8.68,-8.16 -12.58,-5.84 c 0,0 -1.61,-0.03 -0.81,1.94 l 4.71,12.07 z m -8.8,78.15 -1.25,-11.84 -12.26,6.48 c 0,0 -0.99,1.26 1.05,1.82 l 12.46,3.55 z m 0.76,20.06 -1.02,-11.86 -12.38,6.24 c 0,0 -1.02,1.24 1.01,1.84 l 12.39,3.79 z m 0.14,39.05 c 0,0 -0.16,1.6 1.86,0.97 l 12.41,-3.72 -7.43,-9.31 -6.85,12.06 z M 63.31,45.86 70.17,36.12 56.67,32.93 c 0,0 -1.58,0.29 -0.4,2.06 z m 11.04,101.23 c 0,0 -0.35,1.57 1.73,1.18 L 88.85,146.08 82.6,135.94 Z M 68.34,6.45 c 7.57,-0.44 9.64,0 16.5,1.33 2.48,0.49 16.41,5.45 16.41,5.45 -0.16,-0.55 -1.91,-8.98 -1.91,-8.98 -0.91,-3.76 0.22,-3.74 0.22,-3.74 2.63,-0.38 14.42,6.32 14.57,6.42 1.67,0.42 13.25,11.41 13.25,11.41 l 3.38,-13.81 c 14.12,10.35 15.39,22.93 15.39,22.93 1.82,-1.31 12,-4.92 12,-4.92 3.86,-1.49 3.49,0.23 3.49,0.23 l -13.16,26.71 c 0.87,-0.86 6.26,7.3 6.26,7.3 2.96,7.38 12.15,7.84 12.15,7.84 h 0.02 c -0.5,1.26 -0.65,2.33 -0.69,2.87 -3.55,-0.36 -5.64,-1.05 -5.64,-1.05 -6.37,-2.59 -7.87,-6.49 -7.87,-6.49 -1.76,-3.7 -4.67,-6.64 -7.14,-8.65 -2.47,-2.01 -4.5,-3.09 -4.5,-3.09 -13.44,-6.57 -23.68,2.58 -23.68,2.58 -4.74,-8.94 -12.88,-8.08 -12.88,-8.08 -10.12,1.8 -9.7,10.11 -9.7,10.11 0.17,10.01 9.39,12.1 9.39,12.1 -2.82,2.64 -5.25,9.74 -5.25,9.74 -4.26,9.3 1.41,16.6 2.48,19.75 v 0.02 c -1.92,0.7 -9.29,10.98 -9.29,10.98 1.75,-1.38 7.41,-0.33 7.41,-0.33 -2.93,3.3 -5.34,8.03 -7.03,11.94 -1.63,3.79 -2.58,6.8 -2.64,6.98 0.84,-1.02 9.62,-3.46 9.62,-3.46 -0.57,0.27 -1.72,5.51 -1.72,5.51 -1.56,2.43 -3.65,18.92 -3.82,20.33 0.33,-1.03 5.91,-3.38 5.91,-3.38 -0.56,1.26 -0.32,11.35 -0.32,11.35 0.65,11.71 13.02,20.02 13.02,20.02 l 39.4,-0.82 c 1.71,0.2 3.31,-0.84 3.29,-2.15 -0.06,-4.58 -10.03,-7.47 -10.73,-7 0.83,-8.63 -3.53,-14.24 -3.53,-14.24 -7.52,-10.36 -22.33,-9.11 -22.33,-9.11 0,0 7.03,-4.84 16.23,0.03 0,0 8.59,3.78 11.36,11.95 0,0 2.07,4.57 1.85,8.63 0,0 8.47,-6.23 9.63,-22.78 v -0.27 c 1.59,-0.06 2.68,-0.16 2.83,-0.23 0,0 0.07,0 0.2,0 v 0 c 0,0.08 0.01,0.15 0.02,0.22 v 0.02 c 1.05,12.39 -6.58,21.29 -7.52,22.22 6.75,1.47 9.28,6.25 9.28,6.25 2.46,6.13 -4.11,5.92 -4.11,5.92 -1.85,3.67 -4.9,3.53 -4.9,3.53 l -31.99,0.72 -29.99,0.67 -24.29,0.48 c -3,0.65 -12.76,-0.35 -12.76,-0.35 -4.89,-0.38 -7.86,-3.93 -7.86,-3.93 -2.5,1.9 -6.64,2.99 -6.64,2.99 -1.12,0.52 -5.65,-13.37 -5.65,-13.37 -0.55,-0.95 -7.84,7.17 -7.84,7.17 0,0 0.15,0.15 -1.76,0.78 -1.92,0.64 -2.73,-8.62 -4.11,-13.55 -1.38,-4.94 0.46,-17.97 0.46,-17.97 -0.96,0.17 -13.38,5.37 -13.38,5.37 -1.36,-0.94 0.59,-12.63 0.59,-12.63 0.42,-7.06 7.84,-19.41 7.84,-19.41 0.51,-0.46 -15.45,2.45 -15.45,2.45 -1.45,-1.52 4.52,-12.35 4.52,-12.35 C 8.05,97.53 17.76,88.33 17.76,88.33 L 3.03,90.93 C 2.44,88.22 9.24,78.51 9.24,78.51 12.58,73.18 23.79,63.78 23.79,63.78 22.94,63.07 7.74,61.65 7.74,61.65 7.63,56.98 22.67,45.5 22.67,45.5 27.24,41.3 41.8,36.07 41.8,36.07 28.7,30.04 28.24,28.58 28.24,28.58 c -1.71,-1.22 8.84,-5.72 8.84,-5.72 8.77,-4.15 10.4,-3.65 16.57,-4.81 2.79,-0.53 16.65,-1.4 16.65,-1.4 0.19,-0.79 -7.62,-9.26 -7.62,-9.26 0.81,-1.33 5.65,-0.92 5.65,-0.92 z"
             fill="#316638"
             id="path153" />
          <path
             d="m 136.38,60.82 c -6.3,0.79 -6.95,6.06 -7.02,7.05 v 0.02 c 0.48,6.54 5.99,6.99 5.99,6.99 5.64,1.5 8.32,-4.24 8.32,-4.24 2.21,-9.66 -7.29,-9.81 -7.29,-9.81 v 0 z M 99.56,54.6 c -0.07,0.24 1.3,5.04 6.86,6.29 -0.22,-0.2 -6.28,-5.58 -1.01,-9.37 0,0 1.78,-2.51 8.5,2 0,0 -2.86,-7.33 -9.75,-6.17 0,0 -5.52,1.65 -4.6,7.25 z m 0.01,50.5 c 0,0 -5.66,-1.05 -7.41,0.33 0,0 7.37,-10.28 9.3,-10.98 v -0.02 c -1.08,-3.15 -6.75,-10.45 -2.49,-19.75 0,0 2.43,-7.1 5.25,-9.74 0,0 -9.22,-2.09 -9.39,-12.1 0,0 -0.42,-8.3 9.7,-10.11 0,0 8.15,-0.86 12.88,8.08 0,0 10.24,-9.15 23.68,-2.58 0,0 2.03,1.08 4.5,3.09 2.47,2.01 5.38,4.95 7.14,8.65 0,0 1.5,3.9 7.87,6.49 0,0 2.08,0.69 5.64,1.05 -0.02,0.25 -0.02,0.39 -0.02,0.39 0.3,8.07 6.89,9.7 6.89,9.7 0.64,0.21 1.59,0.29 2.59,0.3 -0.09,0.24 -3.16,8.07 -10.72,12.45 0,0 -6.72,1.91 -12.14,-5.18 0,0 -2.48,-1.2 -2.15,1.86 0,0 1.25,4.29 9.55,6.01 0.34,0.49 -9.2,5.72 -26.24,8.37 -0.08,-0.02 -0.08,-0.02 -0.03,0 0.01,0 0.02,0 0.03,0 0.46,0.12 4.7,1.38 12.34,0.26 l 0.03,0.2 c 1.34,-0.03 8,14.21 8.7,15.71 -3.9,-1.23 -8.97,-3.08 -13.68,-5.62 0,0 -6.21,-2.56 -7.4,-2.83 l -0.02,0.13 c 2.11,0.57 7.52,7.76 21.26,11.44 0.53,0.34 2.46,0.75 4.67,1.13 2.21,0.37 4.71,0.7 6.39,0.89 2.35,0.27 8.93,4.37 2.65,10.53 -0.49,0.57 -6.16,3.39 -16.57,2.38 0,0 -12.49,-0.84 -20.16,-4.51 h -0.01 c 1.42,3 9.69,5.76 11.52,6.38 3.3,1.18 10.14,1.29 14.02,1.15 v 0.27 c -1.15,16.55 -9.62,22.78 -9.62,22.78 0.21,-4.06 -1.85,-8.63 -1.85,-8.63 -2.77,-8.17 -11.36,-11.95 -11.36,-11.95 -9.2,-4.87 -16.23,-0.03 -16.23,-0.03 0,0 14.81,-1.25 22.33,9.11 0,0 4.36,5.61 3.53,14.24 0.7,-0.46 10.67,2.43 10.73,7 0.02,1.31 -1.58,2.35 -3.29,2.15 l -39.4,0.82 c 0,0 -12.37,-8.31 -13.02,-20.02 0,0 -0.24,-10.09 0.32,-11.35 0,0 -5.58,2.35 -5.91,3.38 0.18,-1.41 2.26,-17.9 3.82,-20.33 0,0 1.15,-5.24 1.72,-5.51 0,0 -8.77,2.44 -9.62,3.46 0.06,-0.18 1,-3.19 2.64,-6.98 1.69,-3.91 4.11,-8.64 7.03,-11.94 z"
             fill="#a949b7"
             id="path154" />
          <path
             d="m 83.49,66.84 -8.73,-9.57 c -1.45,-1.55 0.06,-2.1 0.06,-2.1 l 13.84,0.94 z"
             fill="#a949b7"
             id="path155" />
          <path
             d="m 84.61,15.19 12.58,5.84 -8.68,8.16 -4.71,-12.07 c -0.79,-1.97 0.81,-1.94 0.81,-1.94 z"
             fill="#a949b7"
             id="path156" />
          <path
             d="m 82.47,167.42 c -2.02,0.63 -1.86,-0.97 -1.86,-0.97 l 6.85,-12.06 7.43,9.31 -12.41,3.72 z"
             fill="#a949b7"
             id="path157" />
          <path
             d="m 76.09,148.27 c -2.08,0.39 -1.73,-1.18 -1.73,-1.18 l 8.25,-11.15 6.25,10.14 z"
             fill="#a949b7"
             id="path158" />
          <path
             d="M 84.26,47.6 77.9,36.32 c -1.07,-1.84 0.53,-2.03 0.53,-2.03 l 13.27,4.02 -7.45,9.29 z"
             fill="#a949b7"
             id="path159" />
          <path
             d="m 79.45,115.53 1.02,11.86 -12.39,-3.79 c -2.04,-0.59 -1.01,-1.84 -1.01,-1.84 l 12.38,-6.24 z"
             fill="#a949b7"
             id="path160" />
          <path
             d="m 78.46,95.49 1.25,11.84 -12.46,-3.55 c -2.04,-0.56 -1.05,-1.82 -1.05,-1.82 l 12.26,-6.48 z"
             fill="#a949b7"
             id="path161" />
          <path
             d="M 82.54,73.87 81.47,85.73 69.94,79.84 c -1.9,-0.94 -0.68,-1.99 -0.68,-1.99 z"
             fill="#a949b7"
             id="path162" />
          <path
             d="m 55.66,148.24 c -2.11,0.22 -1.63,-1.32 -1.63,-1.32 l 9.11,-10.46 5.43,10.6 -12.9,1.17 z"
             fill="#a949b7"
             id="path163" />
          <path
             d="M 63.31,45.86 56.27,34.99 c -1.18,-1.77 0.4,-2.06 0.4,-2.06 l 13.5,3.19 z"
             fill="#a949b7"
             id="path164" />
          <path
             d="m 46.89,121.88 c -2.08,-0.43 -1.17,-1.75 -1.17,-1.75 l 11.82,-7.26 2.01,11.74 z"
             fill="#a949b7"
             id="path165" />
          <path
             d="m 63.69,67.88 -9.9,-8.35 c -1.64,-1.35 -0.21,-2.09 -0.21,-2.09 l 13.84,-0.87 -3.73,11.32 z"
             fill="#a949b7"
             id="path166" />
          <path
             d="m 54.06,153.75 8.33,8.52 -11.97,4.94 c -1.95,0.83 -1.95,-0.77 -1.95,-0.77 l 5.6,-12.69 z"
             fill="#a949b7"
             id="path167" />
          <path
             d="m 46.79,96.57 c -1.96,-0.81 -0.81,-1.94 -0.81,-1.94 l 12.98,-4.89 -0.25,11.91 z"
             fill="#a949b7"
             id="path168" />
          <path
             d="m 32.05,148.53 c -2.11,0.13 -1.58,-1.39 -1.58,-1.39 l 9.53,-10.07 4.99,10.81 -12.94,0.64 z"
             fill="#a949b7"
             id="path169" />
          <path
             d="m 26.03,120.53 c -2.04,-0.59 -1.02,-1.84 -1.02,-1.84 l 12.38,-6.25 1.02,11.87 -12.39,-3.78 z"
             fill="#a949b7"
             id="path170" />
          <path
             d="M 31.29,66.13 C 29.65,64.79 31.07,64.04 31.07,64.04 L 44.91,63.11 41.23,74.44 Z"
             fill="#a949b7"
             id="path171" />
          <path
             d="M 26.94,92.38 C 25.02,91.47 26.23,90.41 26.23,90.41 L 39.44,86.18 38.59,98.06 26.95,92.39 Z"
             fill="#a949b7"
             id="path172" />
        </g>
        <g
           id="g246">
          <path
             d="m 159.42,118.81 c 1.47,0.39 2.35,0.58 2.35,0.58 0.41,0.02 0.79,0.04 1.17,0.07 1.88,0.13 3.42,0.37 4.66,0.67 1.46,0.34 2.53,0.76 3.29,1.15 1.56,0.81 1.92,1.55 1.92,1.55 0.94,1.55 1.44,2.99 1.77,5.33 0,0.11 0.01,0.21 0.01,0.31 0.09,3.6 -1.91,5.87 -1.91,5.87 -0.56,0.52 -1.22,0.97 -1.91,1.37 -0.89,0.51 -1.85,0.92 -2.83,1.25 -1.52,0.52 -3.05,0.86 -4.32,1.07 -1.36,0.23 -2.42,0.32 -2.84,0.35 -0.13,0 -0.2,0 -0.2,0 -0.15,0.08 -1.24,0.18 -2.84,0.23 -3.88,0.14 -10.72,0.04 -14.02,-1.15 -1.84,-0.63 -10.1,-3.38 -11.52,-6.37 v 0 c -0.02,-0.05 -0.05,-0.11 -0.07,-0.17"
             fill="none"
             stroke="#491a47"
             stroke-miterlimit="6.21"
             id="path173" />
          <path
             d="m 155.09,117.56 c 1.71,0.54 3.2,0.95 4.33,1.25"
             fill="none"
             stroke="#491a47"
             stroke-miterlimit="6.21"
             id="path174" />
          <path
             d="m 134.01,109.11 c 1.19,0.27 7.4,2.83 7.4,2.83 4.71,2.54 9.78,4.4 13.68,5.62"
             fill="none"
             stroke="#491a47"
             stroke-miterlimit="6.21"
             id="path175" />
          <path
             d="m 155.14,117.69 c 0,0 -0.02,-0.04 -0.06,-0.13 v 0 c -0.69,-1.5 -7.36,-15.74 -8.7,-15.71 -0.03,0 -0.06,0.01 -0.08,0.03"
             fill="none"
             stroke="#491a47"
             stroke-miterlimit="6.21"
             id="path176" />
          <path
             d="m 162.56,114.67 h 0.02 c 0,0 -3.26,3.38 -3.16,4.15 v 0 c 0,0 0,0.06 0.02,0.08"
             fill="none"
             stroke="#491a47"
             stroke-miterlimit="6.21"
             id="path177" />
          <path
             d="m 150.34,101.16 c 0,0 4.8,8.27 4.74,8.93 0,0 6.99,4.21 7.47,4.58"
             fill="none"
             stroke="#491a47"
             stroke-miterlimit="6.21"
             id="path178" />
          <path
             d="m 153.49,100.14 c 0,0 0.08,-0.03 0.24,-0.1 1.53,-0.61 9.75,-3.94 11.44,-5.39 0.05,-0.04 0.09,-0.07 0.12,-0.11"
             fill="none"
             stroke="#491a47"
             stroke-miterlimit="6.21"
             id="path179" />
          <path
             d="m 153.68,100 c 0,0 8.6,-3.32 11.49,-5.34 0.1,-0.07 0.2,-0.15 0.29,-0.21 0,0 8.1,-5.65 10.53,-9.71 0,0 2.8,-3.59 3.79,-7.06 q 0,0 0,-0.01 c 0,0 -2.11,0.25 -4.08,0.22 -0.99,-0.01 -1.95,-0.09 -2.59,-0.3 0,0 -6.59,-1.62 -6.89,-9.7 0,0 0,-0.14 0.02,-0.39 0.04,-0.54 0.19,-1.61 0.69,-2.86 v 0 c 0.74,-1.85 2.24,-4.11 5.32,-5.71 0,0 7.43,-2.91 11.69,1.82 0,0 5.41,4.64 1.56,12.55 0,0 -1.39,2.95 -5.72,4.38 -0.01,0 -0.03,0.01 -0.05,0.02"
             fill="none"
             stroke="#491a47"
             stroke-miterlimit="6.21"
             id="path180" />
          <path
             d="m 129.36,67.86 c 0,0 -0.01,-0.07 -0.01,-0.12"
             fill="none"
             stroke="#491a47"
             stroke-miterlimit="6.21"
             id="path181" />
          <path
             d="m 136.38,60.83 c 0,0 9.5,0.14 7.29,9.81 0,0 -2.68,5.74 -8.32,4.24 0,0 -5.5,-0.45 -5.99,-6.99"
             fill="none"
             stroke="#491a47"
             stroke-miterlimit="6.21"
             id="path182" />
          <path
             d="m 129.35,68.02 c 0,0 0,-0.05 0,-0.14 v -0.02 c 0.07,-0.98 0.72,-6.26 7.02,-7.05 0.05,0 0.1,-0.01 0.15,-0.02"
             fill="none"
             stroke="#491a47"
             stroke-miterlimit="6.21"
             id="path183" />
          <path
             d="m 178.22,61.23 c 0,0 2.28,-0.35 2.58,2.46 0,0 -0.36,2.07 -2.12,2.08 0,0 -2.4,0.38 -2.81,-1.93 0,0 -0.51,-2.22 2.34,-2.61 z"
             fill="none"
             stroke="#491a47"
             stroke-miterlimit="6.21"
             id="path184" />
          <path
             d="m 160.81,138.61 c 0,-0.07 0,-0.14 -0.02,-0.21"
             fill="none"
             stroke="#491a47"
             stroke-miterlimit="6.21"
             id="path185" />
          <path
             d="m 166.91,64.63 c 0,0 -9.2,-0.46 -12.15,-7.84 0,0 -5.39,-8.16 -6.26,-7.3 l 13.16,-26.71 c 0,0 0.36,-1.71 -3.49,-0.23 0,0 -10.18,3.62 -12,4.92 0,0 -1.27,-12.58 -15.39,-22.93 l -3.38,13.81 c 0,0 -11.58,-11 -13.25,-11.41 -0.15,-0.1 -11.94,-6.8 -14.57,-6.42 0,0 -1.12,-0.02 -0.22,3.74 0,0 1.74,8.42 1.91,8.98 0,0 -13.93,-4.96 -16.41,-5.45 -6.87,-1.34 -8.94,-1.78 -16.5,-1.33 0,0 -4.84,-0.41 -5.65,0.92 0,0 7.81,8.47 7.62,9.26 0,0 -13.86,0.87 -16.65,1.4 -6.17,1.16 -7.8,0.66 -16.57,4.81 0,0 -10.55,4.5 -8.84,5.72 0,0 0.46,1.46 13.56,7.49 0,0 -14.57,5.23 -19.13,9.43 0,0 -15.04,11.49 -14.93,16.15 0,0 15.2,1.42 16.05,2.13 0,0 -11.21,9.4 -14.55,14.73 0,0 -6.79,9.71 -6.21,12.42 l 14.73,-2.6 c 0,0 -9.7,9.21 -12.53,15.28 0,0 -5.97,10.83 -4.52,12.35 0,0 15.96,-2.91 15.45,-2.45 0,0 -7.42,12.35 -7.84,19.41 0,0 -1.95,11.69 -0.59,12.63 0,0 12.41,-5.2 13.38,-5.37 0,0 -1.84,13.03 -0.46,17.97 1.38,4.94 2.2,14.19 4.11,13.55 1.91,-0.64 1.76,-0.78 1.76,-0.78 0,0 7.29,-8.12 7.84,-7.17 0,0 4.53,13.9 5.65,13.37 0,0 4.15,-1.1 6.64,-2.99 0,0 2.97,3.55 7.86,3.93 0,0 9.76,1 12.76,0.35 l 24.29,-0.48 29.99,-0.67 31.99,-0.72 c 0,0 3.05,0.14 4.9,-3.53 0,0 6.57,0.21 4.11,-5.92 0,0 -2.53,-4.78 -9.28,-6.25 0.94,-0.93 8.57,-9.82 7.52,-22.22"
             fill="none"
             stroke="#491a47"
             stroke-miterlimit="6.21"
             id="path186" />
          <path
             d="m 93.97,146.49 c 0,0 0,-0.03 0,-0.08 0,0 0,-0.01 0,-0.02 0.33,-1.03 5.91,-3.38 5.91,-3.38 -0.56,1.26 -0.32,11.35 -0.32,11.35 0.65,11.71 13.02,20.02 13.02,20.02 l 39.4,-0.82 c 1.71,0.2 3.31,-0.84 3.29,-2.15 -0.06,-4.58 -10.03,-7.47 -10.73,-7 0.83,-8.63 -3.53,-14.24 -3.53,-14.24 -7.52,-10.36 -22.33,-9.11 -22.33,-9.11 0,0 7.03,-4.84 16.23,0.03 0,0 8.59,3.78 11.36,11.95 0,0 2.07,4.57 1.85,8.63 0,0 8.47,-6.23 9.63,-22.78"
             fill="none"
             stroke="#491a47"
             stroke-miterlimit="6.21"
             id="path187" />
          <path
             d="m 89.9,124.03 c 0,0 0,0 0,-0.01 0.84,-1.02 9.62,-3.46 9.62,-3.46 -0.57,0.27 -1.72,5.51 -1.72,5.51 -1.56,2.43 -3.65,18.92 -3.82,20.33"
             fill="none"
             stroke="#491a47"
             stroke-miterlimit="6.21"
             id="path188" />
          <path
             d="m 101.76,94.44 c -0.08,-0.04 -0.18,-0.03 -0.3,0 -1.93,0.7 -9.3,10.98 -9.3,10.98 1.75,-1.38 7.41,-0.33 7.41,-0.33 -2.93,3.3 -5.34,8.03 -7.03,11.94 -1.63,3.79 -2.58,6.8 -2.64,6.98"
             fill="none"
             stroke="#491a47"
             stroke-miterlimit="6.21"
             id="path189" />
          <path
             d="m 101.45,94.42 c -1.07,-3.15 -6.74,-10.45 -2.48,-19.75 0,0 2.43,-7.1 5.25,-9.74 0,0 -9.22,-2.09 -9.39,-12.1 0,0 -0.42,-8.3 9.7,-10.11 0,0 8.15,-0.86 12.88,8.08 0,0 10.24,-9.15 23.68,-2.58 0,0 2.03,1.08 4.5,3.09 2.47,2.01 5.38,4.95 7.14,8.65 0,0 1.5,3.9 7.87,6.49 0,0 2.08,0.69 5.64,1.05 0.01,0 0.02,0 0.03,0"
             fill="none"
             stroke="#491a47"
             stroke-miterlimit="6.21"
             id="path190" />
          <line
             x1="106.43"
             y1="60.889999"
             x2="106.42"
             y2="60.889999"
             fill="none"
             stroke="#491a47"
             stroke-miterlimit="6.21"
             id="line190" />
          <path
             d="m 106.42,60.89 c -0.22,-0.2 -6.28,-5.58 -1.01,-9.37 0,0 1.78,-2.51 8.5,2 0,0 -2.86,-7.33 -9.75,-6.17 0,0 -5.52,1.65 -4.6,7.25 -0.07,0.24 1.3,5.04 6.86,6.29 z"
             fill="none"
             stroke="#491a47"
             stroke-miterlimit="6.21"
             id="path191" />
          <path
             d="m 135.51,63.5 c 0,0 2.06,-0.32 2.34,2.23 0,0 -0.33,1.87 -1.93,1.88 0,0 -2.17,0.34 -2.54,-1.75 0,0 -0.46,-2.01 2.13,-2.36 z"
             fill="none"
             stroke="#491a47"
             stroke-miterlimit="6.21"
             id="path192" />
          <path
             d="M 141.14,34.72 133,23.49 c 0,0 -1.39,-0.81 -1.65,1.29 l -1.76,12.83 11.55,-2.9 z"
             fill="none"
             stroke="#491a47"
             stroke-miterlimit="6.21"
             id="path193" />
          <path
             d="m 118.73,34.02 -11.24,-8.13 c 0,0 -1.57,-0.34 -1.17,1.74 l 2.33,12.74 10.07,-6.36 z"
             fill="none"
             stroke="#491a47"
             stroke-miterlimit="6.21"
             id="path194" />
          <path
             d="M 97.19,21.03 84.61,15.19 c 0,0 -1.61,-0.03 -0.81,1.94 l 4.71,12.07 8.68,-8.16 z"
             fill="none"
             stroke="#491a47"
             stroke-miterlimit="6.21"
             id="path195" />
          <path
             d="M 91.71,38.3 78.44,34.28 c 0,0 -1.6,0.2 -0.53,2.03 l 6.36,11.28 7.45,-9.29 z"
             fill="none"
             stroke="#491a47"
             stroke-miterlimit="6.21"
             id="path196" />
          <path
             d="m 70.16,36.12 -13.5,-3.19 c 0,0 -1.58,0.29 -0.4,2.06 l 7.04,10.87 z"
             fill="none"
             stroke="#491a47"
             stroke-miterlimit="6.21"
             id="path197" />
          <path
             d="M 88.66,56.11 74.82,55.17 c 0,0 -1.51,0.55 -0.06,2.1 l 8.73,9.57 z"
             fill="none"
             stroke="#491a47"
             stroke-miterlimit="6.21"
             id="path198" />
          <path
             d="m 67.42,56.57 -13.84,0.87 c 0,0 -1.43,0.74 0.21,2.09 l 9.9,8.35 3.73,-11.32 z"
             fill="none"
             stroke="#491a47"
             stroke-miterlimit="6.21"
             id="path199" />
          <path
             d="m 44.91,63.11 -13.84,0.93 c 0,0 -1.42,0.75 0.22,2.09 l 9.94,8.31 z"
             fill="none"
             stroke="#491a47"
             stroke-miterlimit="6.21"
             id="path200" />
          <path
             d="m 82.54,73.87 -13.28,3.98 c 0,0 -1.22,1.05 0.68,1.99 l 11.53,5.89 z"
             fill="none"
             stroke="#491a47"
             stroke-miterlimit="6.21"
             id="path201" />
          <path
             d="m 78.46,95.49 -12.26,6.48 c 0,0 -0.99,1.26 1.05,1.82 l 12.46,3.55 -1.25,-11.84 z"
             fill="none"
             stroke="#491a47"
             stroke-miterlimit="6.21"
             id="path202" />
          <path
             d="m 58.96,89.74 -12.98,4.89 c 0,0 -1.15,1.13 0.81,1.94 l 11.92,5.08 z"
             fill="none"
             stroke="#491a47"
             stroke-miterlimit="6.21"
             id="path203" />
          <path
             d="m 39.44,86.18 -13.21,4.23 c 0,0 -1.2,1.07 0.71,1.97 l 11.64,5.67 0.85,-11.88 z"
             fill="none"
             stroke="#491a47"
             stroke-miterlimit="6.21"
             id="path204" />
          <path
             d="m 79.45,115.53 -12.38,6.24 c 0,0 -1.02,1.24 1.01,1.84 l 12.39,3.79 -1.02,-11.86 z"
             fill="none"
             stroke="#491a47"
             stroke-miterlimit="6.21"
             id="path205" />
          <path
             d="m 57.55,112.87 -11.82,7.26 c 0,0 -0.92,1.32 1.17,1.75 l 12.66,2.73 z"
             fill="none"
             stroke="#491a47"
             stroke-miterlimit="6.21"
             id="path206" />
          <path
             d="m 37.4,112.45 -12.38,6.25 c 0,0 -1.02,1.24 1.02,1.84 l 12.39,3.78 -1.02,-11.87 z"
             fill="none"
             stroke="#491a47"
             stroke-miterlimit="6.21"
             id="path207" />
          <path
             d="m 82.61,135.94 -8.25,11.15 c 0,0 -0.35,1.57 1.73,1.18 l 12.77,-2.19 z"
             fill="none"
             stroke="#491a47"
             stroke-miterlimit="6.21"
             id="path208" />
          <path
             d="m 63.13,136.46 -9.11,10.46 c 0,0 -0.47,1.54 1.63,1.32 l 12.9,-1.17 -5.43,-10.6 z"
             fill="none"
             stroke="#491a47"
             stroke-miterlimit="6.21"
             id="path209" />
          <path
             d="m 40.01,137.07 -9.53,10.07 c 0,0 -0.54,1.52 1.58,1.39 L 45,147.89 40.01,137.08 Z"
             fill="none"
             stroke="#491a47"
             stroke-miterlimit="6.21"
             id="path210" />
          <path
             d="m 87.45,154.39 -6.85,12.06 c 0,0 -0.16,1.6 1.86,0.97 l 12.41,-3.72 -7.43,-9.31 z"
             fill="none"
             stroke="#491a47"
             stroke-miterlimit="6.21"
             id="path211" />
          <path
             d="m 54.06,153.75 -5.6,12.69 c 0,0 0,1.61 1.95,0.77 l 11.97,-4.94 -8.33,-8.52 z"
             fill="none"
             stroke="#491a47"
             stroke-miterlimit="6.21"
             id="path212" />
          <path
             d="m 191.27,90.32 c 0,0 0.1,-0.09 0.15,-0.13"
             fill="none"
             stroke="#491a47"
             stroke-miterlimit="6.21"
             id="path213" />
          <path
             d="m 162.54,114.68 v 0 c 0,0 0,-0.01 0,-0.01 0.3,-0.31 6.07,-6.13 12.83,-4.23 0,0 -1.08,-4.76 3.89,-6.14 0,0 1.15,-7.82 7.67,-6.75 0,0 -0.72,-2.92 4.28,-7.19"
             fill="none"
             stroke="#491a47"
             stroke-miterlimit="6.21"
             id="path214" />
          <path
             d="m 133.98,109.24 c 2.11,0.57 7.52,7.76 21.26,11.44 0.53,0.34 2.46,0.75 4.67,1.13 2.21,0.37 4.71,0.7 6.39,0.89 2.35,0.27 8.93,4.37 2.65,10.53 -0.49,0.57 -6.16,3.39 -16.57,2.38 0,0 -12.49,-0.84 -20.16,-4.51"
             fill="none"
             stroke="#491a47"
             stroke-miterlimit="6.21"
             id="path215" />
          <path
             d="m 162.96,119.27 c 0,0 5.74,-8.81 12.43,-5.45 l 0.17,3.82 c 0,0 -3.44,-2.27 -7.95,2.47"
             fill="none"
             stroke="#491a47"
             stroke-miterlimit="6.21"
             id="path216" />
          <path
             d="m 170.94,121.21 c 0,0 2.38,-2.12 4.62,-0.41 0,0 0.18,3.5 0.37,7.3 0.22,4.45 0.47,9.33 0.46,9.5 0,0 -2.14,1.85 -5.58,-1.81"
             fill="none"
             stroke="#491a47"
             stroke-miterlimit="6.21"
             id="path217" />
          <path
             d="m 168.01,137.15 c 0,0 3.36,5.74 9.38,3.31 0,0 0.73,2.27 1.59,3.34 0,0 -3.72,3.05 -10.5,-0.42 0,0 -3.58,-2.93 -4.84,-5.34 l -0.02,-0.03"
             fill="none"
             stroke="#491a47"
             stroke-miterlimit="6.21"
             id="path218" />
          <path
             d="m 178.69,110.29 0.45,24.68 c 0,0 0.86,11.3 13.82,18.62 0.69,1.15 17.41,7.36 30.7,-0.59 0,0 14.25,-6.37 12.12,-27.62 l -0.26,-16.75 c 0,0 -0.98,0.72 -3.32,1.49 -2.34,0.77 -6.08,1.6 -11.58,1.8 0,0 -19.15,1.59 -25.11,0.9 0,0 -11.76,-0.01 -16.81,-2.53 z"
             fill="none"
             stroke="#491a47"
             stroke-miterlimit="6.21"
             id="path219" />
          <path
             d="m 235.18,106.58 c 0,0 -0.91,-1.45 -1.57,-1.07 0,0 0.1,1.59 0.3,1.87 0,0 1.12,-0.23 1.26,-0.8 z"
             fill="none"
             stroke="#491a47"
             stroke-miterlimit="6.21"
             id="path220" />
          <path
             d="m 219.4,101.65 c 0,0 4.33,-3.67 8.15,-2.35 0,0 2.15,0.68 2.93,3.07 0,0 1.53,3.62 1.25,4.62 0,0 -0.1,1.3 -4.32,1.68 0,0 -2.24,0.46 -5.72,0.79 0,0 0.56,-5.36 -2.3,-7.81 z"
             fill="none"
             stroke="#491a47"
             stroke-miterlimit="6.21"
             id="path221" />
          <path
             d="m 229.12,103.72 c -0.07,-0.17 -1.57,-3.94 -5.72,-2.52 0,0 0.57,-1.33 3.62,-0.96 0,0 2.17,0.62 2.1,3.48 z"
             fill="none"
             stroke="#491a47"
             stroke-miterlimit="6.21"
             id="path222" />
          <line
             x1="229.12"
             y1="103.72"
             x2="229.12"
             y2="103.73"
             fill="none"
             stroke="#491a47"
             stroke-miterlimit="6.21"
             id="line222" />
          <path
             d="m 219.69,109.72 c 0,0 -11.4,1.03 -12.63,0.72 0,0 -2.14,-2.57 -0.46,-5.29 0,0 1,-1.68 4.83,-2.22 0,0 3.06,-0.54 5.43,-0.18 0,0 1.75,0.19 2.54,3.16 0,0 0.37,2.64 0.3,3.81 z"
             fill="none"
             stroke="#491a47"
             stroke-miterlimit="6.21"
             id="path223" />
          <path
             d="m 217.51,106.19 c 0,0 -1.08,-2.65 -6.32,-1.33 0,0 -0.28,-0.85 3.64,-1.26 0,0 2.38,-0.5 2.69,2.58 z"
             fill="none"
             stroke="#491a47"
             stroke-miterlimit="6.21"
             id="path224" />
          <path
             d="m 203.58,110.68 c 0,0 -10.7,0.2 -11.95,-0.28 0,0 -2.66,-5.82 0.79,-7.17 0.04,0.1 1.48,-1.07 7.85,-1.15 0,0 3.17,-0.13 3.76,2.92 0,0 0.23,5.29 -0.44,5.67 z"
             fill="none"
             stroke="#491a47"
             stroke-miterlimit="6.21"
             id="path225" />
          <path
             d="m 200.19,103.97 c -0.32,0.25 -1.6,1.1 -4.12,1.05 0,0 -2.54,0.14 -3.42,0.06 0,0 0.08,-0.99 2.89,-0.67 0,0 3.98,-0.05 4.65,-0.44 z"
             fill="none"
             stroke="#491a47"
             stroke-miterlimit="6.21"
             id="path226" />
          <path
             d="m 200.19,103.97 v 0"
             fill="none"
             stroke="#491a47"
             stroke-miterlimit="6.21"
             id="path227" />
          <path
             d="m 200.2,103.97 c 0,0 0.06,-0.04 0.08,-0.07 0,0 -0.02,0.03 -0.08,0.07 z"
             fill="none"
             stroke="#491a47"
             stroke-miterlimit="6.21"
             id="path228" />
          <path
             d="m 189.2,110.11 c 0,0 -6.66,-0.32 -7.78,-1.06 0,0 -1.53,0.33 0.63,-5.82 0,0 1,-4.39 4.91,-3.75 0,0 6.46,1.13 5.22,1.79 0,0 -2.78,0.65 -3.32,3.86 0,0 -0.14,4.96 0.34,4.99 z"
             fill="none"
             stroke="#491a47"
             stroke-miterlimit="6.21"
             id="path229" />
          <path
             d="m 183.72,103.76 v 0 c -0.04,-0.11 -0.58,-1.82 1.66,-2.81 0,0 2.35,-0.48 3.64,0.62 h 0.01"
             fill="none"
             stroke="#491a47"
             stroke-miterlimit="6.21"
             id="path230" />
          <path
             d="m 189.01,101.57 c -0.2,-0.04 -4.15,-0.88 -5.3,2.18"
             fill="none"
             stroke="#491a47"
             stroke-miterlimit="6.21"
             id="path231" />
          <path
             d="m 188.99,98.04 c 0,0 0.45,-3.08 3.06,-5.33 0,0 2.6,-2.95 4.99,-2.53 0,0 2.01,1.31 2.71,3.19 0,0 -2.93,2.01 -3.9,3.31 0,0 -1.17,1.04 -0.4,3.7 0,0 -0.06,0.68 -1.62,-0.45 0,0 -2.52,-2.05 -4.83,-1.89 z"
             fill="none"
             stroke="#491a47"
             stroke-miterlimit="6.21"
             id="path232" />
          <path
             d="m 195.58,91.48 c 0,0 -0.16,3.27 -4.5,5.38 -0.51,0.29 3.35,-4.03 4.5,-5.38 z"
             fill="none"
             stroke="#491a47"
             stroke-miterlimit="6.21"
             id="path233" />
          <path
             d="m 213.07,100.99 c 0,0 0,0 0,0"
             fill="none"
             stroke="#491a47"
             stroke-miterlimit="6.21"
             id="path234" />
          <path
             d="m 221.67,97.93 c 0.14,-0.51 1.16,-3.08 -6.14,-6.81 0,0 -2.53,-1.39 -5.51,2.21 0,0 3.99,4.01 3.41,5.63 0,0 -0.11,1.83 -0.36,2.03 0.12,-0.06 1.28,-0.62 4.14,-0.2 0,0 0.94,-1.1 4.45,-2.86 z"
             fill="none"
             stroke="#491a47"
             stroke-miterlimit="6.21"
             id="path235" />
          <path
             d="m 219.39,96.32 c 0,0 -3.36,-2.75 -3.88,-3.49 0,0 -1.11,-0.86 -1.6,-0.61 0,0 2.04,2.68 2.7,2.84 0,0 2.19,1.43 2.78,1.26 z"
             fill="none"
             stroke="#491a47"
             stroke-miterlimit="6.21"
             id="path236" />
          <path
             d="m 214.57,89.17 v -0.02 c -0.41,-4.16 -3.18,-6.44 -5.23,-7.36 -6.13,-2.76 -9.02,0.89 -8.8,0.35 -4.86,2.29 -4,5.99 -4,5.99 -0.98,-0.06 -0.98,-1.34 -5.27,2.2 0,0 -0.02,0.02 -0.03,0.03"
             fill="none"
             stroke="#491a47"
             stroke-miterlimit="6.21"
             id="path237" />
          <path
             d="m 160.79,138.56 c 0,0 0.01,0.03 0.02,0.05 v 0.02 c 1.82,6.81 10.38,9.07 10.38,9.07 0,0 5.32,1.24 9.72,-1.02 0,0 3.74,9.58 19.35,12.67 0,0 13.83,2.33 23.54,-3.09 0,0 13.23,-6.08 14.6,-19.89 0.78,-2 0.69,-29.38 -0.38,-31.04 0,0 -0.25,-1.5 -5.44,-3.04 0,0 -0.36,-6.49 -8.18,-5.31 -0.64,-2.81 -4.38,-5.73 -4.75,-6.19 -4.99,-3.35 -5.08,-1.81 -5.08,-1.64"
             fill="none"
             stroke="#491a47"
             stroke-miterlimit="6.21"
             id="path238" />
          <path
             d="m 134.02,101.39 c 0.46,0.12 4.7,1.38 12.34,0.26 1.22,-0.17 2.53,-0.42 3.92,-0.74 1.09,-0.24 2.24,-0.54 3.44,-0.89"
             fill="none"
             stroke="#491a47"
             stroke-miterlimit="6.21"
             id="path239" />
          <path
             d="m 134.02,101.39 c 0,0 -0.02,0 -0.03,0 -0.05,-0.02 -0.04,-0.02 0.03,0 z"
             fill="none"
             stroke="#491a47"
             stroke-miterlimit="6.21"
             id="path240" />
          <path
             d="m 175.71,77.88 v 0 c -0.09,0.25 -3.16,8.08 -10.72,12.46 0,0 -6.72,1.91 -12.14,-5.18 0,0 -2.48,-1.2 -2.15,1.86 0,0 1.25,4.29 9.55,6.01 0.34,0.49 -9.2,5.72 -26.24,8.37"
             fill="none"
             stroke="#491a47"
             stroke-miterlimit="6.21"
             id="path241" />
          <path
             d="m 212.38,89.01 c 0,0 -0.47,-4.4 -6.36,-6.13 0,0 -3.75,-0.24 -5.97,2.09 0,0 -2.86,2.02 -0.55,4.57 0,0 2.46,2.88 2.71,2.69 0,0 3.03,-2.2 5.95,-0.03 0,0 3.23,-3.24 4.22,-3.19 z"
             fill="none"
             stroke="#491a47"
             stroke-miterlimit="6.21"
             id="path242" />
          <path
             d="m 210.33,87.8 c -0.14,-0.21 -2.27,-3.5 -3.72,-3.63 0,0 -1.68,-0.48 -2.55,0.3 0,0 3.27,0.34 6.26,3.33 z"
             fill="none"
             stroke="#491a47"
             stroke-miterlimit="6.21"
             id="path243" />
          <path
             d="m 210.33,87.8 c 0,0 0,0 0,0"
             fill="none"
             stroke="#491a47"
             stroke-miterlimit="6.21"
             id="path244" />
          <path
             d="m 209.18,101.48 c 0,0 -3.12,0.83 -3.66,1.96 0,0 -0.41,-2.85 -4.78,-3 0,0 -2.81,-0.21 -3.17,-0.13 0,0 -1.56,-2.14 1.41,-4.04 0,0 3.88,-2.95 6.24,-2.82 0,0 0.31,0.02 0.8,0.13 1.46,0.34 4.48,1.54 5.32,5.81 0,0 -0.08,1.95 -2.16,2.1 z"
             fill="none"
             stroke="#491a47"
             stroke-miterlimit="6.21"
             id="path245" />
          <path
             d="m 209.1,100.11 c 0,0 -2.76,-4.71 -3.6,-4.95 0,0 0.02,-0.15 0.21,-0.16 0.31,0 1.05,0.35 2.82,2.26 0,0 0.83,0.99 0.57,2.85 z"
             fill="none"
             stroke="#491a47"
             stroke-miterlimit="6.21"
             id="path246" />
        </g>
      </g>
    </g>
    <g
       opacity="0.7"
       id="g296"
       transform="translate(-0.01175292,2.9018237e-5)">
      <g
         id="g295">
        <g
           id="g282">
          <path
             d="m 211.7,140.85 c -1.15,-0.03 -2.76,-0.09 -3.49,-0.14 -0.52,-0.04 -0.56,-0.13 -0.56,-0.16 0,-0.03 0.01,-0.04 0.05,-0.06 0.03,-0.01 0.06,-0.03 0.09,-0.07 0.16,-0.17 0.11,-0.63 0.05,-1.12 0,0 0,-0.01 0,-0.02 -0.52,-4.77 -1.16,-9.55 -1.95,-14.34 0,0 0,-0.01 -0.01,-0.01 0,0 0,0 0,0 0,0 -0.01,0 -0.01,0 -1.93,4.88 -3.28,9.94 -4.19,14.96 -0.22,1.26 -0.3,1.51 -0.4,1.53 -0.1,0.01 -0.3,-0.27 -0.87,-1.15 -0.36,-0.5 -1.18,-1.95 -3.98,-5.58 -0.07,-0.09 -0.12,-0.15 -0.14,-0.18 -0.26,-0.51 -5.39,-6.22 -6.06,-6.72 0,0 -0.01,0 -0.02,0 0,0 0,0 0,0 0,0 0,0 0,0.02 1.29,4.12 2.54,8.23 3.72,12.32 0.01,0.04 0.02,0.08 0.04,0.12 0.11,0.36 0.22,0.7 0.36,1.1 0.22,0.6 0.57,0.97 0.94,0.98 0.37,0.02 0.63,-0.03 0.75,-0.06 0.14,-0.03 0.2,0 0.21,0.02 0,0.01 -0.02,0.1 -0.26,0.15 -0.5,0.11 -1.13,0.22 -1.54,0.3 -0.19,0.04 -0.33,0.06 -0.38,0.08 -0.07,0.02 -0.23,0.07 -0.44,0.14 -0.36,0.12 -0.85,0.28 -1.18,0.38 -0.27,0.08 -0.35,0.02 -0.36,0 -0.02,-0.04 0.04,-0.08 0.16,-0.11 0.16,-0.05 0.29,-0.08 0.56,-0.24 0.53,-0.31 0.24,-1.35 -0.06,-2.37 -0.01,-0.04 -0.02,-0.08 -0.03,-0.12 -1.64,-5.51 -3.39,-11.08 -5.19,-16.69 -0.2,-0.66 -0.04,-0.82 0.06,-0.86 0.12,-0.04 0.36,0.09 0.79,0.45 5.13,4.29 9.35,9.32 12.67,14.62 0,0 0,0.01 0.01,0.01 0,0 0,0 0,0 0,0 0,-0.01 0,-0.02 1.09,-5.93 2.81,-11.92 5.38,-17.6 0.26,-0.57 0.41,-0.68 0.58,-0.68 0.07,0 0.24,0.08 0.37,0.76 0.91,5.64 1.59,11.26 2.09,16.84 0.09,1.02 0.23,2.71 1.1,3.09 0.58,0.25 1.05,0.25 1.25,0.26 0.15,0 0.21,0.03 0.21,0.07 0,0.01 -0.06,0.09 -0.3,0.09"
             fill="#fcdf00"
             id="path248" />
          <path
             d="m 194.78,142.42 c -0.31,-0.09 -0.77,-0.38 -1.01,-0.56 -0.12,0.24 -0.21,0.55 -0.54,0.94 -0.34,0.4 -0.96,0.49 -1.21,0.54 0,0 0,0.01 0,0.02 0.01,0.02 0.1,0.08 0.37,0 0.53,-0.15 1.44,-0.47 1.62,-0.52 0.16,-0.04 1.19,-0.22 1.92,-0.38 0.24,-0.05 0.27,-0.14 0.26,-0.17 -0.52,0.16 -1.01,0.25 -1.42,0.12"
             fill="#fcdf00"
             id="path249" />
          <path
             d="m 209.92,140.41 c -0.54,-0.3 -0.9,-0.61 -1.13,-0.83 -0.08,0.25 -0.31,0.61 -0.57,0.82 -0.14,0.11 -0.36,0.15 -0.58,0.15 0,0 0,0 0,0.01 0,0.06 0.11,0.13 0.57,0.17 0.77,0.05 2.4,0.11 3.49,0.14 0.24,0 0.31,-0.07 0.31,-0.1 -0.73,0.02 -1.43,0.01 -2.1,-0.36"
             fill="#fcdf00"
             id="path250" />
          <path
             d="m 189.28,125.6 c 0,0 -1.53,-2.16 -1.79,-2.64 -0.12,0.08 -0.19,0.31 -0.03,0.85 1.81,5.61 3.55,11.18 5.19,16.69 0.31,1.06 0.65,2.16 0.1,2.48 -0.26,0.16 -0.4,0.2 -0.56,0.24 -0.12,0.03 -0.17,0.07 -0.17,0.11 0.25,-0.05 0.87,-0.14 1.21,-0.54 0.33,-0.38 0.43,-0.69 0.54,-0.93 -1.29,-4.57 -4.69,-15.39 -4.73,-15.52 -0.03,-0.15 -0.04,-0.38 0.24,-0.75"
             fill="url(#linear-gradient)"
             id="path251"
             style="fill:url(#linear-gradient)" />
          <path
             d="m 211.79,140.68 c -0.2,0 -0.67,-0.01 -1.25,-0.26 -0.86,-0.38 -1.01,-2.1 -1.1,-3.08 -0.5,-5.58 -1.18,-11.2 -2.09,-16.84 -0.12,-0.66 -0.29,-0.77 -0.38,-0.78 -0.14,0.96 -0.28,1.93 -0.4,2.89 0.95,5.67 1.67,11.33 2.21,16.96 0.22,0.22 0.58,0.53 1.13,0.83 0.66,0.37 1.37,0.37 2.1,0.36 0,-0.05 -0.06,-0.08 -0.22,-0.09"
             fill="#663411"
             id="path252" />
          <path
             d="m 193.77,141.87 c 0,0 0,0 0,0 0.23,0.18 0.69,0.46 1.01,0.56 0.41,0.12 0.89,0.04 1.42,-0.12 -0.02,-0.05 -0.1,-0.06 -0.22,-0.03 -0.12,0.03 -0.38,0.08 -0.75,0.06 -0.3,-0.01 -0.68,-0.28 -0.93,-0.97 -0.16,-0.44 -0.27,-0.8 -0.39,-1.21 -1.18,-4.09 -2.42,-8.2 -3.71,-12.33 -0.38,-0.49 -0.76,-0.98 -1.15,-1.46 0.05,0.13 3.44,10.95 4.73,15.52"
             fill="#663411"
             id="path253" />
          <path
             d="m 189.28,125.6 c -0.28,0.37 -0.26,0.59 -0.24,0.75 0.39,0.48 0.78,0.97 1.15,1.46 0.68,0.52 5.81,6.22 6.06,6.72 0.24,0.22 3.36,4.49 4.12,5.76 0.59,0.92 0.78,1.17 0.88,1.16 -0.08,-0.6 -0.16,-1.2 -0.25,-1.81 -3.11,-5.05 -7.01,-9.87 -11.73,-14.03"
             fill="#fcdf00"
             id="path254" />
          <path
             d="m 188.34,123.4 c -0.48,-0.39 -0.69,-0.49 -0.81,-0.45 -0.01,0 -0.03,0.01 -0.04,0.02 0.26,0.47 1.8,2.63 1.79,2.64 4.72,4.17 8.63,8.98 11.73,14.03 0.19,-0.14 0.24,-0.26 0.24,-0.26 -0.08,-0.46 -0.16,-0.91 -0.24,-1.37 -3.32,-5.3 -7.54,-10.33 -12.67,-14.62"
             fill="#663411"
             id="path255" />
          <path
             d="m 206.39,120.41 c -2.58,5.69 -4.29,11.67 -5.38,17.6 0.08,0.46 0.16,0.91 0.24,1.37 -0.4,-0.07 4.3,-16.64 4.81,-16.57 0.05,-0.07 0.34,-0.16 0.53,-0.19 0.12,-0.97 0.26,-1.93 0.4,-2.89 -0.19,0 -0.34,0.13 -0.59,0.69"
             fill="#fcdf00"
             id="path256" />
          <path
             d="m 201.24,139.38 c 0,0 -0.04,0.12 -0.24,0.26 0.08,0.6 0.16,1.2 0.25,1.81 0.1,-0.01 0.19,-0.28 0.41,-1.54 0.91,-5.02 2.26,-10.08 4.2,-14.96 0.06,-0.71 0.13,-1.42 0.2,-2.13 -0.51,-0.07 -5.21,16.5 -4.81,16.57"
             fill="#663411"
             id="path257" />
          <path
             d="m 206.58,122.62 c -0.19,0.03 -0.47,0.12 -0.53,0.19 -0.07,0.71 -0.14,1.42 -0.2,2.13 0.8,4.79 1.44,9.57 1.96,14.34 0.06,0.49 0.12,0.96 -0.04,1.13 -0.06,0.08 -0.13,0.06 -0.14,0.13 0.22,0 0.44,-0.04 0.58,-0.15 0.27,-0.21 0.49,-0.56 0.57,-0.82 -0.54,-5.63 -1.26,-11.28 -2.21,-16.96"
             fill="url(#linear-gradient-2)"
             id="path258"
             style="fill:url(#linear-gradient-2)" />
          <path
             d="m 189.28,125.6 c -0.28,0.37 -0.26,0.59 -0.24,0.75 0.39,0.48 0.78,0.97 1.15,1.46 0.68,0.52 5.81,6.22 6.06,6.72 0.24,0.22 3.36,4.49 4.12,5.76 0.59,0.92 0.78,1.17 0.88,1.16 -0.08,-0.6 -0.16,-1.2 -0.25,-1.81 -3.11,-5.05 -7.01,-9.87 -11.73,-14.03"
             fill="url(#linear-gradient-3)"
             id="path259"
             style="fill:url(#linear-gradient-3)" />
          <path
             d="m 188.34,123.4 c -0.48,-0.39 -0.69,-0.49 -0.81,-0.45 -0.01,0 -0.03,0.01 -0.04,0.02 0.26,0.47 1.8,2.63 1.79,2.64 4.72,4.17 8.63,8.98 11.73,14.03 0.19,-0.14 0.24,-0.26 0.24,-0.26 -0.08,-0.46 -0.16,-0.91 -0.24,-1.37 -3.32,-5.3 -7.54,-10.33 -12.67,-14.62"
             fill="url(#linear-gradient-4)"
             id="path260"
             style="fill:url(#linear-gradient-4)" />
          <path
             d="m 206.58,122.62 c -0.19,0.03 -0.47,0.12 -0.53,0.19 -0.07,0.71 -0.14,1.42 -0.2,2.13 0.8,4.79 1.44,9.57 1.96,14.34 0.01,0.1 0.02,0.21 0.04,0.3 0.31,-0.01 0.63,-0.02 0.94,-0.03 -0.54,-5.62 -1.26,-11.28 -2.21,-16.95"
             fill="url(#linear-gradient-5)"
             id="path261"
             style="fill:url(#linearGradient296)" />
          <path
             d="m 209.45,137.34 c -0.5,-5.58 -1.18,-11.2 -2.09,-16.84 -0.12,-0.66 -0.29,-0.77 -0.38,-0.78 -0.14,0.96 -0.28,1.93 -0.4,2.89 0.95,5.67 1.67,11.32 2.21,16.94 0.35,0 0.71,-0.01 1.06,-0.01 -0.27,-0.68 -0.35,-1.59 -0.4,-2.21"
             fill="url(#linear-gradient-6)"
             id="path262"
             style="fill:url(#linear-gradient-6)" />
          <path
             d="m 194.3,141.35 c -0.16,-0.44 -0.27,-0.8 -0.39,-1.21 -1.18,-4.09 -2.42,-8.2 -3.71,-12.33 -0.38,-0.49 -0.76,-0.98 -1.15,-1.46 0.05,0.13 3.4,10.82 4.71,15.43 0.22,-0.06 0.44,-0.11 0.66,-0.17 -0.04,-0.08 -0.07,-0.17 -0.11,-0.26"
             fill="url(#linear-gradient-7)"
             id="path263"
             style="fill:url(#linear-gradient-7)" />
          <path
             d="m 192.65,140.51 c 0.16,0.54 0.32,1.1 0.37,1.55 0.25,-0.07 0.5,-0.14 0.75,-0.2 -1.27,-4.47 -4.53,-14.91 -4.72,-15.48 -0.23,0.08 -0.47,0.16 -0.7,0.24 1.49,4.67 2.93,9.3 4.3,13.89"
             fill="url(#linear-gradient-8)"
             id="path264"
             style="fill:url(#linear-gradient-8)" />
          <path
             d="m 211.79,140.68 c -0.2,0 -0.67,-0.01 -1.25,-0.26 -0.32,-0.14 -0.54,-0.47 -0.7,-0.87 -0.35,0 -0.71,0 -1.06,0.01 0,0 0,0 0,0.01 0.22,0.22 0.58,0.53 1.13,0.83 0.66,0.37 1.37,0.37 2.1,0.36 0,-0.05 -0.06,-0.08 -0.22,-0.09"
             fill="url(#linear-gradient-9)"
             id="path265"
             style="fill:url(#linear-gradient-9)" />
          <path
             d="m 195.97,142.26 c -0.12,0.03 -0.38,0.08 -0.75,0.06 -0.26,-0.01 -0.58,-0.21 -0.82,-0.71 -0.22,0.06 -0.44,0.11 -0.66,0.17 0,0.03 0.02,0.06 0.03,0.09 0,0 0,0 0,0 0.23,0.18 0.69,0.46 1.01,0.56 0.41,0.12 0.89,0.04 1.42,-0.12 -0.02,-0.05 -0.1,-0.06 -0.22,-0.03"
             fill="url(#linear-gradient-10)"
             id="path266"
             style="fill:url(#linear-gradient-10)" />
          <path
             d="m 189.28,125.6 c 0,0 -1.53,-2.16 -1.79,-2.64 -0.12,0.08 -0.19,0.31 -0.03,0.85 0.3,0.93 0.6,1.86 0.89,2.79 0.23,-0.08 0.46,-0.16 0.7,-0.24 0,-0.01 0,-0.02 0,-0.02 -0.03,-0.15 -0.04,-0.37 0.24,-0.75"
             fill="url(#radial-gradient)"
             id="path267"
             style="fill:url(#radialGradient296)" />
          <path
             d="m 194.78,142.42 c -0.31,-0.09 -0.77,-0.38 -1.01,-0.56 -0.12,0.24 -0.21,0.55 -0.54,0.94 -0.34,0.4 -0.96,0.49 -1.21,0.54 0,0 0,0.01 0,0.02 0.01,0.02 0.1,0.08 0.37,0 0.53,-0.15 1.44,-0.47 1.62,-0.52 0.16,-0.04 1.19,-0.22 1.92,-0.38 0.24,-0.05 0.27,-0.14 0.26,-0.17 -0.52,0.16 -1.01,0.25 -1.42,0.12"
             fill="url(#radial-gradient-2)"
             id="path268"
             style="fill:url(#radialGradient297)" />
          <path
             d="m 209.92,140.41 c -0.54,-0.3 -0.9,-0.61 -1.13,-0.83 -0.08,0.25 -0.31,0.61 -0.57,0.82 -0.14,0.11 -0.36,0.15 -0.58,0.15 0,0 0,0 0,0.01 0,0.06 0.11,0.13 0.57,0.17 0.77,0.05 2.4,0.11 3.49,0.14 0.24,0 0.31,-0.07 0.31,-0.1 -0.73,0.02 -1.43,0.01 -2.1,-0.36"
             fill="url(#radial-gradient-3)"
             id="path269"
             style="fill:url(#radial-gradient-3)" />
          <path
             d="m 206.58,122.62 c -0.19,0.03 -0.47,0.12 -0.53,0.19 -0.07,0.71 -0.14,1.42 -0.2,2.13 0,0 0,0.01 0,0.02 0.37,0 0.74,-0.01 1.11,-0.01 -0.12,-0.78 -0.25,-1.55 -0.39,-2.33"
             fill="url(#radial-gradient-4)"
             id="path270"
             style="fill:url(#radialGradient298)" />
          <path
             d="m 201.01,138.01 c 0.08,0.46 0.16,0.91 0.24,1.37 0,0 0.15,-0.9 0.41,-2.28 -0.14,-0.13 -0.28,-0.25 -0.42,-0.38 -0.08,0.43 -0.16,0.86 -0.23,1.29"
             fill="url(#radial-gradient-5)"
             id="path271"
             style="fill:url(#radial-gradient-5)" />
          <path
             d="m 206.58,122.62 c 0.12,-0.97 0.26,-1.93 0.4,-2.89 -0.19,0 -0.34,0.13 -0.59,0.69 -0.32,0.69 -0.64,1.39 -0.93,2.09 0.18,0.15 0.36,0.3 0.53,0.45 0.04,-0.09 0.06,-0.14 0.07,-0.14 0.05,-0.08 0.34,-0.17 0.53,-0.19"
             fill="url(#radial-gradient-6)"
             id="path272"
             style="fill:url(#radial-gradient-6)" />
          <path
             d="m 201.24,139.38 c 0,0 -0.04,0.12 -0.24,0.26 0.08,0.6 0.16,1.2 0.25,1.81 0.1,-0.01 0.19,-0.28 0.41,-1.54 0.86,-4.73 2.1,-9.5 3.86,-14.11 -0.17,-0.15 -0.34,-0.3 -0.51,-0.45 -1.87,4.57 -3.84,14.04 -3.76,14.03"
             fill="#663411"
             id="path273" />
          <path
             d="m 206.05,122.81 c 0,0 -0.46,1.02 -1.05,2.54 0.17,0.15 0.34,0.3 0.51,0.45 0.11,-0.28 0.22,-0.57 0.34,-0.85 0.06,-0.71 0.13,-1.42 0.2,-2.13"
             fill="url(#radial-gradient-7)"
             id="path274"
             style="fill:url(#radialGradient299)" />
          <path
             d="m 209.45,137.34 c -0.5,-5.58 -1.18,-11.2 -2.09,-16.84 -0.12,-0.66 -0.29,-0.77 -0.38,-0.78 -0.14,0.96 -0.28,1.93 -0.4,2.89 0.95,5.67 1.67,11.32 2.21,16.94 0.35,0 0.71,-0.01 1.06,-0.01 -0.27,-0.68 -0.35,-1.59 -0.4,-2.21"
             fill="url(#radial-gradient-8)"
             id="path275"
             style="fill:url(#radialGradient300)" />
          <path
             d="m 194.3,141.35 c -0.16,-0.44 -0.27,-0.8 -0.39,-1.21 -1.18,-4.09 -2.42,-8.2 -3.71,-12.33 -0.38,-0.49 -0.76,-0.98 -1.15,-1.46 0.05,0.13 3.4,10.82 4.71,15.43 0.22,-0.06 0.44,-0.11 0.66,-0.17 -0.04,-0.08 -0.07,-0.17 -0.11,-0.26"
             fill="url(#radial-gradient-9)"
             id="path276"
             style="fill:url(#radial-gradient-9)" />
          <path
             d="m 189.28,125.6 c 0,0 -1.53,-2.16 -1.79,-2.64 -0.12,0.08 -0.19,0.31 -0.03,0.85 1.81,5.61 3.55,11.18 5.19,16.69 0.31,1.06 0.65,2.16 0.1,2.48 -0.26,0.16 -0.4,0.2 -0.56,0.24 -0.12,0.03 -0.17,0.07 -0.17,0.11 0.25,-0.05 0.87,-0.14 1.21,-0.54 0.33,-0.38 0.43,-0.69 0.54,-0.93 -1.29,-4.57 -4.69,-15.39 -4.73,-15.52 -0.03,-0.15 -0.04,-0.38 0.24,-0.75"
             fill="url(#radial-gradient-10)"
             id="path277"
             style="fill:url(#radial-gradient-10)" />
          <path
             d="m 189.28,125.6 c -0.28,0.37 -0.26,0.59 -0.24,0.75 0.39,0.48 0.78,0.97 1.15,1.46 0.68,0.52 5.81,6.22 6.06,6.72 0.24,0.22 3.36,4.49 4.12,5.76 0.59,0.92 0.78,1.17 0.88,1.16 -0.08,-0.6 -0.16,-1.2 -0.25,-1.81 -3.11,-5.05 -7.01,-9.87 -11.73,-14.03"
             fill="url(#radial-gradient-11)"
             id="path278"
             style="fill:url(#radialGradient301)" />
          <path
             d="m 188.34,123.4 c -0.48,-0.39 -0.69,-0.49 -0.81,-0.45 -0.01,0 -0.03,0.01 -0.04,0.02 0.26,0.47 1.8,2.63 1.79,2.64 4.72,4.17 8.63,8.98 11.73,14.03 0.19,-0.14 0.24,-0.26 0.24,-0.26 -0.08,-0.46 -0.16,-0.91 -0.24,-1.37 -3.32,-5.3 -7.54,-10.33 -12.67,-14.62"
             fill="url(#radial-gradient-12)"
             id="path279"
             style="fill:url(#radial-gradient-12)" />
          <path
             d="m 206.05,122.81 c -0.51,-0.07 -5.21,16.5 -4.81,16.57 0.17,-0.03 0.35,-0.05 0.52,-0.07 0.91,-4.83 2.23,-9.67 4.09,-14.36 0.06,-0.71 0.13,-1.42 0.2,-2.13"
             fill="url(#radial-gradient-13)"
             id="path280"
             style="fill:url(#radial-gradient-13)" />
          <path
             d="m 206.39,120.41 c -2.58,5.69 -4.29,11.67 -5.38,17.6 0.08,0.46 0.16,0.91 0.24,1.37 -0.4,-0.07 4.3,-16.64 4.81,-16.57 0.05,-0.07 0.34,-0.16 0.53,-0.19 0.12,-0.97 0.26,-1.93 0.4,-2.89 -0.19,0 -0.34,0.13 -0.59,0.69"
             fill="url(#radial-gradient-14)"
             id="path281"
             style="fill:url(#radial-gradient-14)" />
          <path
             d="m 206.58,122.62 c -0.19,0.03 -0.47,0.12 -0.53,0.19 -0.07,0.71 -0.14,1.42 -0.2,2.13 0.8,4.79 1.44,9.57 1.96,14.34 0.06,0.49 0.12,0.96 -0.04,1.13 -0.06,0.08 -0.13,0.06 -0.14,0.13 0.22,0 0.44,-0.04 0.58,-0.15 0.27,-0.21 0.49,-0.56 0.57,-0.82 -0.54,-5.63 -1.26,-11.28 -2.21,-16.96"
             fill="url(#radial-gradient-15)"
             id="path282"
             style="fill:url(#radial-gradient-15)" />
        </g>
        <g
           id="g294">
          <path
             d="m 216.96,141.53 c -1.06,-0.1 -1.91,-0.4 -2.68,-0.97 -0.17,-0.14 -0.17,-0.25 -0.14,-0.53 0.15,-1.37 0.29,-2.1 0.38,-2.53 0.02,-0.12 0.04,-0.23 0.06,-0.32 0.05,-0.27 0.11,-0.4 0.17,-0.4 0.03,0 0.02,0.09 0,0.28 0,0.02 0,0.05 -0.01,0.08 -0.03,0.25 -0.09,0.73 -0.04,1.36 0.11,1.04 1.43,2 2.88,2.16 1.95,0.21 3.31,-1.3 3.76,-2.85 0.26,-0.89 0.3,-1.57 0.12,-2.3 -0.19,-0.74 -0.62,-1.57 -1.46,-2.71 -0.29,-0.38 -0.59,-0.77 -0.89,-1.15 -1.06,-1.32 -1.77,-2.41 -2.16,-3.43 -0.35,-0.9 -0.46,-1.75 -0.31,-2.74 0.21,-1.38 0.96,-2.47 2.22,-3.05 1.28,-0.6 3,-0.63 4.87,-0.05 1.05,0.33 1.91,0.71 2.69,1.17 0.56,0.32 0.84,0.47 1.18,0.6 0.06,0.02 0.09,0.05 0.11,0.08 0.01,0.03 0,0.06 -0.02,0.09 -0.23,0.28 -0.53,0.73 -0.98,1.96 -0.23,0.59 -0.34,0.6 -0.37,0.59 -0.05,-0.02 -0.02,-0.18 0.06,-0.44 0,-0.02 0,-0.03 0.01,-0.05 0.06,-0.25 0.17,-0.63 0.01,-1.11 -0.04,-0.11 -0.45,-1.31 -3.5,-2.24 -1.04,-0.31 -2,-0.27 -2.76,0.08 -0.79,0.37 -1.28,1.06 -1.46,1.96 -0.16,0.81 -0.09,1.43 0.23,2.14 0.33,0.76 0.96,1.64 1.97,2.87 0.19,0.24 0.38,0.48 0.57,0.71 1.15,1.49 1.75,2.65 1.99,3.66 0.21,0.93 0.14,1.78 -0.21,2.79 -0.12,0.35 -0.41,1.04 -0.98,1.8 -0.57,0.77 -1.25,1.37 -2.02,1.8 -0.98,0.54 -2.09,0.78 -3.27,0.66"
             fill="#fcdf00"
             id="path283" />
          <path
             d="m 226.6,124.35 c 0.34,0.9 0.01,1.88 -0.29,2.53 0.06,0.02 0.17,-0.05 0.39,-0.6 0.48,-1.3 0.78,-1.71 0.98,-1.95 0.03,-0.04 0.04,-0.08 0.02,-0.11 -0.1,0.04 -0.62,0.1 -1.1,0.13"
             fill="#663411"
             id="path284" />
          <path
             d="m 214.74,136.77 c -0.07,0 -0.13,0.12 -0.18,0.41 -0.07,0.42 -0.24,1.1 -0.44,2.85 -0.02,0.14 -0.02,0.24 0,0.32 0.11,-0.07 0.36,-0.21 0.65,-0.33 -0.38,-1.11 -0.24,-2.43 -0.02,-3.25"
             fill="url(#linear-gradient-11)"
             id="path285"
             style="fill:url(#linear-gradient-11)" />
          <path
             d="m 221.45,130.81 c -0.19,-0.24 -0.38,-0.48 -0.57,-0.71 -2.04,-2.44 -2.49,-3.53 -2.19,-5 0.36,-1.88 2.14,-2.65 4.21,-2.04 0.07,0.02 0.14,0.04 0.21,0.06 2.56,0.82 3.18,1.86 3.28,2.16 0.16,0.51 0.03,0.91 -0.03,1.15 -0.1,0.33 -0.1,0.44 -0.05,0.46 0,0 0,0 0,0 0.3,-0.65 0.63,-1.64 0.29,-2.53 -0.37,-0.25 -1.68,-1.2 -3.36,-1.68 -1.23,-0.36 -2.65,-0.45 -3.87,0.15 -2.05,1.01 -2.48,4.21 -0.03,7.19 0.19,0.23 1.43,1.74 1.6,1.95 2.24,2.86 2.09,6.08 -0.35,8.09 -1.07,0.91 -2.24,1.15 -3.27,1.05 -1.1,-0.11 -2.07,-0.61 -2.54,-1.1 -0.28,0.13 -0.53,0.26 -0.65,0.33 0.02,0.08 0.06,0.15 0.15,0.22 0.86,0.64 1.75,0.88 2.69,0.97 0.09,0 0.17,0.01 0.26,0.02 1,0.05 2.04,-0.14 3.02,-0.69 1.73,-0.97 2.68,-2.64 3,-3.61 0.62,-1.87 0.51,-3.44 -1.79,-6.46"
             fill="url(#linear-gradient-12)"
             id="path286"
             style="fill:url(#linear-gradient-12)" />
          <path
             d="m 219.36,122.82 c 1.23,-0.6 2.64,-0.5 3.87,-0.15 1.68,0.48 3,1.43 3.36,1.68 0.48,-0.02 1,-0.08 1.1,-0.13 -0.02,-0.03 -0.05,-0.06 -0.11,-0.08 -0.35,-0.14 -0.65,-0.3 -1.17,-0.6 -0.68,-0.41 -1.52,-0.81 -2.69,-1.17 -0.12,-0.04 -0.24,-0.07 -0.36,-0.11 -3.71,-1.01 -6.36,0.5 -6.74,3.22 -0.28,1.78 0.26,3.47 2.48,6.18 0.3,0.38 0.6,0.77 0.89,1.15 1.62,2.21 1.82,3.33 1.34,5 -0.46,1.54 -1.81,3.05 -3.75,2.84 -0.06,0 -0.12,-0.02 -0.18,-0.03 -1.35,-0.21 -2.58,-1.12 -2.69,-2.12 -0.07,-0.7 0.02,-1.2 0.05,-1.43 0.03,-0.21 0.04,-0.29 0,-0.29 -0.22,0.82 -0.36,2.14 0.02,3.25 0.46,0.49 1.44,0.99 2.54,1.1 1.04,0.1 2.2,-0.14 3.27,-1.05 2.44,-2.01 2.6,-5.23 0.35,-8.09 -0.17,-0.22 -1.4,-1.72 -1.6,-1.95 -2.45,-2.98 -2.02,-6.19 0.03,-7.19"
             fill="url(#linear-gradient-13)"
             id="path287"
             style="fill:url(#linear-gradient-13)" />
          <path
             d="m 226.6,124.35 c -0.11,-0.08 -0.31,-0.22 -0.59,-0.39 -0.07,0.18 -0.14,0.37 -0.2,0.55 0.38,0.35 0.53,0.62 0.57,0.77 0.16,0.51 0.04,0.91 -0.03,1.15 -0.1,0.33 -0.1,0.44 -0.05,0.46 0,0 0,0 0,0 0.3,-0.65 0.63,-1.64 0.29,-2.53"
             fill="#fcdf00"
             id="path288" />
          <path
             d="m 223.24,122.67 c -0.04,0.15 -0.09,0.3 -0.13,0.44 2.56,0.82 3.18,1.86 3.28,2.16 0.16,0.51 0.03,0.91 -0.03,1.15 -0.1,0.33 -0.1,0.44 -0.05,0.46 0,0 0,0 0,0 0.3,-0.65 0.63,-1.64 0.29,-2.53 -0.37,-0.25 -1.68,-1.2 -3.36,-1.68"
             fill="url(#radial-gradient-16)"
             id="path289"
             style="fill:url(#radial-gradient-16)" />
          <path
             d="m 214.77,140.01 c -0.38,-1.11 -0.24,-2.43 -0.02,-3.25 -0.07,0 -0.13,0.12 -0.18,0.41 -0.07,0.42 -0.24,1.1 -0.44,2.85 -0.02,0.14 -0.02,0.24 0,0.32 0.02,0.08 0.06,0.15 0.15,0.22 0.86,0.64 1.75,0.88 2.69,0.97 0.09,0 0.17,0.01 0.26,0.02 0.03,-0.15 0.06,-0.3 0.09,-0.45 -1.1,-0.11 -2.08,-0.61 -2.54,-1.1"
             fill="url(#radial-gradient-17)"
             id="path290"
             style="fill:url(#radial-gradient-17)" />
          <path
             d="m 221.45,130.81 c -0.19,-0.24 -0.38,-0.48 -0.57,-0.71 -0.55,-0.68 -0.99,-1.25 -1.33,-1.75 -0.32,0.2 -0.64,0.4 -0.96,0.6 0.21,0.36 0.45,0.72 0.74,1.07 0.19,0.23 1.43,1.74 1.6,1.95 0.59,0.74 1.02,1.52 1.29,2.29 0.33,-0.19 0.66,-0.38 0.99,-0.57 -0.32,-0.82 -0.87,-1.75 -1.75,-2.89"
             fill="url(#radial-gradient-18)"
             id="path291"
             style="fill:url(#radial-gradient-18)" />
          <path
             d="m 227.7,124.23 c 0,0 -0.06,-0.06 -0.11,-0.08 -0.35,-0.14 -0.65,-0.3 -1.17,-0.6 -0.68,-0.41 -1.52,-0.81 -2.69,-1.17 0,0 -0.02,0 -0.03,0 -0.04,0.14 -0.08,0.28 -0.13,0.41 1.52,0.5 2.69,1.34 3.03,1.58 0.34,0.9 0.01,1.88 -0.29,2.53 0.06,0.02 0.17,-0.05 0.39,-0.6 0.48,-1.3 0.78,-1.71 0.98,-1.95 0.03,-0.04 0.04,-0.08 0.02,-0.11"
             fill="url(#linear-gradient-14)"
             id="path292"
             style="fill:url(#linear-gradient-14)" />
          <path
             d="m 220.92,131.97 c -0.17,-0.22 -1.4,-1.72 -1.6,-1.95 -0.4,-0.51 -0.73,-1.02 -0.98,-1.52 -0.32,0.24 -0.63,0.48 -0.93,0.73 0.4,0.72 0.96,1.52 1.69,2.43 0.3,0.38 0.6,0.77 0.89,1.15 0.6,0.81 1,1.47 1.25,2.07 0.32,-0.22 0.64,-0.43 0.97,-0.64 -0.26,-0.77 -0.69,-1.55 -1.28,-2.28"
             fill="url(#radial-gradient-19)"
             id="path293"
             style="fill:url(#radial-gradient-19)" />
          <path
             d="m 214.7,138.5 c -0.07,-0.7 0.02,-1.2 0.05,-1.43 0.03,-0.21 0.04,-0.29 0,-0.29 -0.22,0.82 -0.36,2.14 0.02,3.25 0.43,0.45 1.29,0.92 2.29,1.07 0.03,-0.17 0.06,-0.34 0.09,-0.51 -1.24,-0.28 -2.34,-1.13 -2.45,-2.08"
             fill="url(#linear-gradient-15)"
             id="path294"
             style="fill:url(#linear-gradient-15)" />
        </g>
      </g>
    </g>
  </g>
</svg>
