<?xml version="1.0" encoding="UTF-8" standalone="no"?>
<!-- Created with Inkscape (http://www.inkscape.org/) -->

<svg
   width="99.002853mm"
   height="131.51875mm"
   viewBox="0 0 99.002853 131.51875"
   version="1.1"
   id="svg1"
   xml:space="preserve"
   inkscape:version="1.4.2 (f4327f4, 2025-05-13)"
   sodipodi:docname="taht.svg"
   xmlns:inkscape="http://www.inkscape.org/namespaces/inkscape"
   xmlns:sodipodi="http://sodipodi.sourceforge.net/DTD/sodipodi-0.dtd"
   xmlns="http://www.w3.org/2000/svg"
   xmlns:svg="http://www.w3.org/2000/svg"><sodipodi:namedview
     id="namedview1"
     pagecolor="#ffffff"
     bordercolor="#000000"
     borderopacity="0.25"
     inkscape:showpageshadow="2"
     inkscape:pageopacity="0.0"
     inkscape:pagecheckerboard="0"
     inkscape:deskcolor="#d1d1d1"
     inkscape:document-units="mm"
     inkscape:zoom="0.44809905"
     inkscape:cx="-37.938041"
     inkscape:cy="41.285515"
     inkscape:window-width="1366"
     inkscape:window-height="705"
     inkscape:window-x="-8"
     inkscape:window-y="-8"
     inkscape:window-maximized="1"
     inkscape:current-layer="layer1" /><defs
     id="defs1" /><g
     inkscape:label="Layer 1"
     inkscape:groupmode="layer"
     id="layer1"
     transform="translate(-47.611634,-34.089752)"><path
       style="fill:#ffe86a;fill-opacity:1;stroke:none;stroke-width:0.403;stroke-dasharray:none"
       d="m 111.61015,113.47559 c 10.47419,-18.172414 35.00434,-19.313694 35.00434,-19.313694 0,0 -30.37846,1.16397 -37.13384,-25.570029 v 0 c -0.17227,-0.04393 -4.6376,-17.146362 -5.48535,-34.502115 -0.94423,17.172775 -5.4998,34.210155 -5.6717,34.255545 v 0 c -6.52797,26.790439 -36.915209,25.884649 -36.915209,25.884649 0,0 24.538949,0.9328 35.167179,19.015554 0,0 7.38449,13.76084 7.69385,41.67135 0.0734,-27.61817 7.34073,-41.44126 7.34073,-41.44126 z"
       id="path2-1"
       sodipodi:nodetypes="ccscccscccc" /><g
       id="g2" /><path
       style="fill:#ffe86a;fill-opacity:1;stroke:none;stroke-width:0.137866;stroke-dasharray:none"
       d="m 78.516573,67.684408 c 3.361002,-6.627781 11.232339,-7.044025 11.232339,-7.044025 0,0 -9.747967,0.424519 -11.915662,-9.325816 v 0 C 77.77797,51.298547 76.345118,45.061003 76.073088,38.731072 75.770099,44.994269 74.30829,51.208085 74.25313,51.224639 v 0 c -2.094723,9.770919 -11.845507,9.440563 -11.845507,9.440563 0,0 7.874161,0.340208 11.284591,6.935289 0,0 2.369566,5.018807 2.468835,15.198235 0.02355,-10.072806 2.355524,-15.114318 2.355524,-15.114318 z"
       id="path2-1-2"
       sodipodi:nodetypes="ccscccscccc" /><path
       style="fill:#ffe86a;fill-opacity:1;stroke:none;stroke-width:0.182695;stroke-dasharray:none"
       d="m 68.590986,145.2288 c 4.377172,-8.93671 14.628339,-9.49795 14.628339,-9.49795 0,0 -12.69518,0.5724 -15.51826,-12.57467 v 0 c -0.072,-0.0215 -1.938056,-8.43212 -2.292331,-16.96722 -0.394596,8.44512 -2.298369,16.82365 -2.370207,16.84597 v 0 c -2.728044,13.17481 -15.426893,12.72938 -15.426893,12.72938 0,0 10.254845,0.45872 14.69639,9.35135 0,0 3.085983,6.76719 3.215266,20.49285 0.03067,-13.58187 3.067696,-20.37971 3.067696,-20.37971 z"
       id="path2-1-2-7"
       sodipodi:nodetypes="ccscccscccc" /></g></svg>
